<?xml version="1.0" encoding="UTF-8" standalone="no"?>
<!-- Created with Inkscape (http://www.inkscape.org/) -->
<svg xmlns:dc="http://purl.org/dc/elements/1.1/" xmlns:cc="http://creativecommons.org/ns#" xmlns:rdf="http://www.w3.org/1999/02/22-rdf-syntax-ns#" xmlns:svg="http://www.w3.org/2000/svg" xmlns="http://www.w3.org/2000/svg" xmlns:xlink="http://www.w3.org/1999/xlink" xmlns:sodipodi="http://sodipodi.sourceforge.net/DTD/sodipodi-0.dtd" xmlns:inkscape="http://www.inkscape.org/namespaces/inkscape" version="1.0" width="569.30804" height="658.12573" id="svg1" inkscape:version="0.48.2 r9819" sodipodi:docname="Compass.svg">
  <metadata id="metadata134">
    <rdf:RDF>
      <cc:Work rdf:about="">
        <dc:format>image/svg+xml</dc:format>
        <dc:mType rdf:resource="http://purl.org/dc/dcmitype/StillImage"/>
      </cc:Work>
    </rdf:RDF>
  </metadata>
  <sodipodi:namedview pagecolor="#ffffff" bordercolor="#666666" borderopacity="1" objecttolerance="10" gridtolerance="10" guidetolerance="10" inkscape:pageopacity="0" inkscape:pageshadow="2" inkscape:window-width="1440" inkscape:window-height="852" id="namedview132" showgrid="false" inkscape:zoom="0.834386" inkscape:cx="277.55239" inkscape:cy="245.06612" inkscape:window-x="0" inkscape:window-y="0" inkscape:window-maximized="0" inkscape:current-layer="svg1" fit-margin-top="0" fit-margin-left="0" fit-margin-right="0" fit-margin-bottom="0">
    <inkscape:grid mType="xygrid" id="grid3111" empspacing="5" visible="true" enabled="true" snapvisiblegridlinesonly="true"/>
  </sodipodi:namedview>
  <defs id="defs3">
    <linearGradient x1="0.98000002" y1="0.6171875" x2="0.115" y2="0.625" id="linearGradient1589" xlink:href="#linearGradient1590"/>
    <radialGradient cx="0.50581396" cy="0.3888889" r="0.42165571" fx="0.50581396" fy="0.3888889" id="radialGradient1652" xlink:href="#linearGradient1649"/>
    <linearGradient id="linearGradient1827">
      <stop style="stop-color:#ffffff;stop-opacity:0.45360824" offset="0" id="stop1828"/>
      <stop style="stop-color:#ffffff;stop-opacity:0" offset="1" id="stop1829"/>
    </linearGradient>
    <linearGradient id="linearGradient1822">
      <stop style="stop-color:#a3a3a3;stop-opacity:1" offset="0" id="stop1823"/>
      <stop style="stop-color:#ffffff;stop-opacity:1" offset="1" id="stop1824"/>
    </linearGradient>
    <linearGradient id="linearGradient1810">
      <stop style="stop-color:#000000;stop-opacity:0.43298969" offset="0" id="stop1811"/>
      <stop style="stop-color:#ffffff;stop-opacity:1" offset="1" id="stop1812"/>
    </linearGradient>
    <linearGradient id="linearGradient1739">
      <stop style="stop-color:#000000;stop-opacity:0" offset="0" id="stop1740"/>
      <stop style="stop-color:#ffffff;stop-opacity:0.67010307" offset="1" id="stop1741"/>
    </linearGradient>
    <linearGradient id="linearGradient1733">
      <stop style="stop-color:#000000;stop-opacity:0" offset="0" id="stop1734"/>
      <stop style="stop-color:#ffffff;stop-opacity:1" offset="1" id="stop1735"/>
    </linearGradient>
    <linearGradient id="linearGradient1722">
      <stop style="stop-color:#000000;stop-opacity:1" offset="0" id="stop1723"/>
      <stop style="stop-color:#ffffff;stop-opacity:1" offset="1" id="stop1724"/>
    </linearGradient>
    <linearGradient id="linearGradient2964">
      <stop style="stop-color:#000000;stop-opacity:1" offset="0" id="stop2965"/>
      <stop style="stop-color:#7f877d;stop-opacity:0.67450982" offset="1" id="stop2966"/>
    </linearGradient>
    <linearGradient id="linearGradient1649">
      <stop style="stop-color:#000000;stop-opacity:0.62244898" offset="0" id="stop1650"/>
      <stop style="stop-color:#ffffff;stop-opacity:0.14285715" offset="1" id="stop1651"/>
    </linearGradient>
    <linearGradient id="linearGradient1644">
      <stop style="stop-color:#000000;stop-opacity:1" offset="0" id="stop1645"/>
      <stop style="stop-color:#ffffff;stop-opacity:1" offset="1" id="stop1646"/>
    </linearGradient>
    <linearGradient id="linearGradient1640">
      <stop style="stop-color:#00b9ff;stop-opacity:1" offset="0" id="stop1641"/>
      <stop style="stop-color:#0046a9;stop-opacity:1" offset="1" id="stop1642"/>
    </linearGradient>
    <linearGradient id="linearGradient1636">
      <stop style="stop-color:#ffffff;stop-opacity:0.3877551" offset="0" id="stop1637"/>
      <stop style="stop-color:#ffffff;stop-opacity:0" offset="1" id="stop1638"/>
    </linearGradient>
    <linearGradient id="linearGradient1599">
      <stop style="stop-color:#f0a100;stop-opacity:1" offset="0" id="stop1600"/>
      <stop style="stop-color:#fff0bc;stop-opacity:1" offset="1" id="stop1601"/>
    </linearGradient>
    <linearGradient id="linearGradient1590">
      <stop style="stop-color:#686568;stop-opacity:1" offset="0" id="stop1591"/>
      <stop style="stop-color:#ffffff;stop-opacity:1" offset="1" id="stop1592"/>
    </linearGradient>
    <linearGradient id="linearGradient1588">
      <stop style="stop-color:#000000;stop-opacity:0.69387758" offset="0" id="stop1589"/>
      <stop style="stop-color:#ffffff;stop-opacity:1" offset="1" id="stop1590"/>
    </linearGradient>
    <linearGradient id="linearGradient1548">
      <stop style="stop-color:#b67424;stop-opacity:0.28865978" offset="0" id="stop1549"/>
      <stop style="stop-color:#ffffff;stop-opacity:0.71134019" offset="1" id="stop1550"/>
    </linearGradient>
    <linearGradient id="linearGradient1557">
      <stop style="stop-color:#b67424;stop-opacity:0.28865978" offset="0" id="stop1558"/>
      <stop style="stop-color:#ffffff;stop-opacity:0.71134019" offset="1" id="stop1559"/>
    </linearGradient>
    <linearGradient id="linearGradient1564">
      <stop style="stop-color:#000000;stop-opacity:1" offset="0" id="stop1565"/>
      <stop style="stop-color:#ffffff;stop-opacity:1" offset="1" id="stop1566"/>
    </linearGradient>
    <radialGradient cx="0.53125" cy="0.50625002" r="0.53753632" fx="0.54374999" fy="0.50625002" id="radialGradient1718" xlink:href="#linearGradient1722"/>
    <radialGradient cx="0.5" cy="0.5" r="0.5" fx="0.5" fy="0.5" id="radialGradient1721" xlink:href="#linearGradient1640"/>
    <linearGradient x1="0.43209878" y1="0.03125" x2="0.53703701" y2="1.13125" id="linearGradient1732" xlink:href="#linearGradient1733"/>
    <linearGradient x1="-0.068597421" y1="0.54009426" x2="0.98436075" y2="0.51871067" id="linearGradient1738" xlink:href="#linearGradient1739"/>
    <linearGradient x1="-1.0018028e-16" y1="0.5" x2="1" y2="0.5" id="linearGradient1808" xlink:href="#linearGradient1810"/>
    <linearGradient x1="-2.9989032e-15" y1="0.5" x2="1.0577806" y2="0.35663527" id="linearGradient1816" xlink:href="#linearGradient1810"/>
    <linearGradient x1="-3.7339923e-16" y1="0.5" x2="1" y2="0.5" id="linearGradient2346" xlink:href="#linearGradient1644"/>
    <linearGradient x1="0.0053191488" y1="0.5026738" x2="1" y2="0.5" id="linearGradient2347" xlink:href="#linearGradient1644"/>
    <linearGradient x1="254.10593" y1="63.580559" x2="349.13837" y2="50.700474" id="linearGradient1485" xlink:href="#linearGradient1810" gradientUnits="userSpaceOnUse" gradientTransform="scale(1.015268,0.984961)"/>
    <linearGradient x1="254.10593" y1="63.580559" x2="343.94727" y2="63.580559" id="linearGradient1487" xlink:href="#linearGradient1810" gradientUnits="userSpaceOnUse" gradientTransform="scale(1.015268,0.984961)"/>
    <linearGradient x1="346.42493" y1="925.71576" x2="289.41486" y2="926.23065" id="linearGradient1489" xlink:href="#linearGradient1590" gradientUnits="userSpaceOnUse" gradientTransform="scale(1.114458,0.897297)"/>
    <radialGradient cx="832.37164" cy="840.52863" r="295.80902" fx="832.37164" fy="840.52863" id="radialGradient1491" xlink:href="#linearGradient1640" gradientUnits="userSpaceOnUse" gradientTransform="matrix(0.73715255,0,0,0.73265301,-330.20471,-242.40957)"/>
    <radialGradient cx="565.24121" cy="543.26483" r="391.34323" fx="574.34161" fy="543.26483" id="radialGradient1493" xlink:href="#linearGradient1722" gradientUnits="userSpaceOnUse"/>
    <linearGradient x1="495.19617" y1="222.23244" x2="566.57043" y2="970.40271" id="linearGradient1495" xlink:href="#linearGradient1733" gradientUnits="userSpaceOnUse" gradientTransform="scale(1.00207,0.997935)"/>
    <linearGradient x1="348.07532" y1="583.94635" x2="907.19519" y2="572.59167" id="linearGradient1497" xlink:href="#linearGradient1739" gradientUnits="userSpaceOnUse" gradientTransform="matrix(0.86311837,0,0,0.85796259,-276.81341,-108.35374)"/>
    <radialGradient cx="99.529572" cy="2330.5923" r="131.67097" fx="99.529572" fy="2330.5923" id="radialGradient1499" xlink:href="#linearGradient1649" gradientUnits="userSpaceOnUse" gradientTransform="scale(2.534863,0.394499)"/>
    <linearGradient x1="-289.10797" y1="314.1153" x2="-260.1192" y2="314.1153" id="linearGradient1501" xlink:href="#linearGradient1644" gradientUnits="userSpaceOnUse"/>
    <linearGradient x1="-288.95377" y1="314.19281" x2="-260.1192" y2="314.1153" id="linearGradient1503" xlink:href="#linearGradient1644" gradientUnits="userSpaceOnUse"/>
    <linearGradient x1="495.19617" y1="222.23244" x2="566.57043" y2="970.40271" id="linearGradient1553" xlink:href="#linearGradient1733" gradientUnits="userSpaceOnUse" gradientTransform="matrix(0.783602,0,0,0.780368,-139.56411,-47.793995)"/>
    <radialGradient cx="565.24121" cy="543.26483" r="391.34323" fx="574.34161" fy="543.26483" id="radialGradient1556" xlink:href="#linearGradient1722" gradientUnits="userSpaceOnUse" gradientTransform="matrix(0.781983,0,0,0.781983,-139.56411,-47.793995)"/>
  </defs>
  <g transform="matrix(0.781983,0,0,0.781983,8.1899994,-572.63767)" id="g2204">
    <g transform="translate(-190.0753,660.0694)" id="g1817">
      <path d="m 347.15699,62.624397 a 43.5648,42.2034 0 1 1 -87.1296,0 43.5648,42.2034 0 1 1 87.1296,0 z" transform="matrix(-0.61409,-0.671108,1.024806,-0.445071,663.1498,340.5874)" style="fill:none;stroke:url(#linearGradient1485);stroke-width:4.08348227;stroke-linecap:butt;stroke-linejoin:miter;stroke-miterlimit:4;stroke-opacity:1" id="path1814" inkscape:connector-curvature="0"/>
      <path d="m 347.15699,62.624397 a 43.5648,42.2034 0 1 1 -87.1296,0 43.5648,42.2034 0 1 1 87.1296,0 z" transform="matrix(0.579395,-0.652366,-0.966908,-0.432638,425.5525,334.957)" style="fill:none;stroke:url(#linearGradient1487);stroke-width:4.08348227;stroke-linecap:butt;stroke-linejoin:miter;stroke-miterlimit:4;stroke-opacity:1" id="path1815" inkscape:connector-curvature="0"/>
    </g>
    <path d="m 350.81945,794.74305 c -7.13918,0 -12.9375,5.48655 -12.9375,12.25 0,1.45778 0.28745,2.82782 0.78125,4.125 -13.82014,3.28481 -23.99119,14.71783 -23.96875,28.5625 l 0,8.46875 c 0.002,1.45502 0.2499,2.85119 0.46875,4.25 l 71.3125,0.28125 c 0.21443,-1.39717 0.47111,-2.79494 0.46875,-4.25 l -0.0312,-8.5 c -0.0224,-13.82651 -10.19684,-25.31128 -24,-28.71875 0.51654,-1.32315 0.84375,-2.72619 0.84375,-4.21875 0,-6.76344 -5.79833,-12.24999 -12.9375,-12.25 z" style="fill:url(#linearGradient1489);fill-opacity:1;fill-rule:evenodd;stroke:#797b7a;stroke-width:0.96096859pt;stroke-linecap:butt;stroke-linejoin:miter;stroke-opacity:1" id="rect1561" inkscape:connector-curvature="0"/>
  </g>
  <path d="m 500.98033,373.40652 a 217.60022,216.26298 0 0 1 -435.200435,0 217.60022,216.26298 0 1 1 435.200435,0 z" style="fill:url(#radialGradient1491);fill-opacity:1;fill-rule:evenodd;stroke:#000000;stroke-width:0.73489947pt;stroke-linecap:butt;stroke-linejoin:miter;stroke-opacity:1" id="path1720" inkscape:connector-curvature="0"/>
  <path d="m 284.64181,89.306392 c -156.85982,0 -284.15307763,127.317588 -284.15307063,284.177508 0,156.85991 127.29325063,284.15305 284.15307063,284.15307 156.85979,0 284.1775,-127.29316 284.1775,-284.15307 0,-156.85992 -127.31771,-284.177508 -284.1775,-284.177508 z m 0,68.496818 c 119.05311,1e-5 215.68071,96.62738 215.68071,215.68069 0,119.0533 -96.6276,215.65625 -215.68071,215.65625 -119.0531,-2e-5 -215.656251,-96.60295 -215.656251,-215.65625 0,-119.05332 96.603151,-215.68069 215.656251,-215.68069 z" style="fill:url(#radialGradient1556);fill-opacity:1;fill-rule:evenodd;stroke:#000000;stroke-width:0.78198299pt;stroke-linecap:butt;stroke-linejoin:miter;stroke-opacity:0.46521738" id="path1091" inkscape:connector-curvature="0"/>
  <path d="m 284.66167,109.04247 c -147.09654,0 -266.485156,118.89534 -266.485148,265.38548 0,146.49015 119.388618,265.38548 266.485148,265.38548 147.09654,0 266.48512,-118.89533 266.48514,-265.38548 0,-146.49015 -119.38859,-265.38548 -266.48514,-265.38548 z m 1.07522,3.10349 c 130.95662,-1e-5 237.2341,117.27026 237.2341,261.76881 0,144.49854 -106.27747,261.76881 -237.2341,261.76881 C 154.78025,635.68359 48.5028,518.41332 48.5028,373.91477 c 0,-144.49856 106.27747,-261.76881 237.23409,-261.76881 z" style="fill:url(#linearGradient1553);fill-opacity:1;fill-rule:evenodd;stroke:none" id="path1727" inkscape:connector-curvature="0"/>
  <path d="m 507.95652,374.3845 a 223.74292,222.23098 0 0 1 -447.485845,0 223.74292,222.23098 0 1 1 447.485845,0 z" style="fill:none;stroke:url(#linearGradient1497);stroke-width:10.97147942;stroke-linecap:butt;stroke-linejoin:miter;stroke-miterlimit:4;stroke-opacity:1" id="path1736" inkscape:connector-curvature="0"/>
  <g transform="matrix(0.781983,0,0,0.781983,37.998569,-13.727065)" id="g3211">
    <path d="m 482.35374,662.00325 27.70367,27.28505 0,0 0,0" style="fill:#ffffff;fill-opacity:1;fill-rule:evenodd;stroke:#ffffff;stroke-width:0.96096859pt;stroke-linecap:butt;stroke-linejoin:miter;stroke-opacity:1" id="path1058" inkscape:connector-curvature="0"/>
    <text x="132.54161" y="-832.80609" transform="matrix(-0.720858,0.640036,-0.693084,-0.665684,0,0)" style="font-size:20px;font-style:normal;font-variant:normal;font-weight:bold;font-stretch:normal;line-height:100%;writing-mode:lr-tb;text-anchor:start;fill:#ffffff;fill-opacity:1;stroke:none;font-family:Bitstream Vera Sans" id="text1076" xml:space="preserve" sodipodi:linespacing="100%"><tspan id="tspan1077">SE</tspan></text>
  </g>
  <g transform="matrix(0.781983,0,0,0.781983,-139.56411,-47.793995)" style="stroke:#ffffff;stroke-width:1.125;stroke-miterlimit:4;stroke-opacity:0.72156863" id="g1104">
    <path d="m -302.73433,176.92265 a 21.623885,23.589692 0 1 1 -43.24777,0 21.623885,23.589692 0 1 1 43.24777,0 z" transform="matrix(1.407723,0,0,1.290334,1000.659,552.3099)" style="fill:#0081f6;fill-opacity:1;fill-rule:evenodd;stroke:#ffffff;stroke-linecap:butt;stroke-linejoin:miter;stroke-opacity:0.72156863" id="path1044" inkscape:connector-curvature="0"/>
    <text x="532.55249" y="856.94586" transform="scale(1,0.923461)" style="font-size:32px;font-style:normal;font-variant:normal;font-weight:bold;font-stretch:normal;line-height:100%;writing-mode:lr-tb;text-anchor:start;fill:#ffffff;fill-opacity:1;stroke:#ffffff;stroke-linecap:butt;stroke-linejoin:miter;stroke-opacity:0.72156863;font-family:Bitstream Vera Sans" id="text1082" xml:space="preserve" sodipodi:linespacing="100%"><tspan style="stroke:#ffffff;stroke-opacity:0.72156863" id="tspan1083">S</tspan></text>
  </g>
  <g transform="matrix(0.781983,0,0,0.781983,37.998569,-13.727065)" id="g3206">
    <path d="m 121.19397,689.60542 26.63347,-28.33063 0,0 0,0" style="fill:#ffffff;fill-opacity:1;fill-rule:evenodd;stroke:#ffffff;stroke-width:0.96096859pt;stroke-linecap:butt;stroke-linejoin:miter;stroke-opacity:1" id="path1059" inkscape:connector-curvature="0"/>
    <text x="-824.0871" y="-258.68124" transform="matrix(-0.708486,-0.651708,0.705724,-0.654259,-227.0672,-43.5648)" style="font-size:20px;font-style:normal;font-variant:normal;font-weight:bold;font-stretch:normal;line-height:100%;writing-mode:lr-tb;text-anchor:start;fill:#ffffff;fill-opacity:1;stroke:none;font-family:Bitstream Vera Sans" id="text1088" xml:space="preserve" sodipodi:linespacing="100%"><tspan id="tspan1089">SW</tspan></text>
  </g>
  <path d="m 285.32147,221.1104 -21.30904,101.95104 -54.54332,-24.53472 24.5836,54.68994 -101.99991,20.52705 101.95103,21.2846 -24.53472,54.54331 54.71438,-24.58359 20.50261,101.99991 21.2846,-101.92659 54.54332,24.51027 -24.58359,-54.68993 102.02434,-20.50262 -101.95103,-21.30903 24.51028,-54.54332 -54.68994,24.60803 -20.50261,-102.02435 z m -0.70868,111.06603 c 22.61048,0 40.95636,18.34557 40.95636,40.95636 2e-5,22.61077 -18.34589,40.95636 -40.95636,40.95636 -22.61046,-1e-5 -40.98079,-18.34558 -40.98079,-40.95636 0,-22.6108 18.37033,-40.95636 40.98079,-40.95636 z" style="fill:#28ffff;fill-opacity:0.08695649;fill-rule:evenodd;stroke:#ffffff;stroke-width:1.95495749;stroke-linecap:butt;stroke-linejoin:miter;stroke-miterlimit:4;stroke-opacity:0.46086952" id="path1118" inkscape:connector-curvature="0"/>
  <g transform="matrix(0.781983,0,0,0.781983,-139.56411,-47.793995)" style="stroke:#ffffff;stroke-width:1.125;stroke-miterlimit:4;stroke-opacity:0.72156863" id="g1109">
    <path d="m -302.73433,176.92265 a 21.623885,23.589692 0 1 1 -43.24777,0 21.623885,23.589692 0 1 1 43.24777,0 z" transform="matrix(1.407723,0,0,1.290334,1240.265,311.3421)" style="fill:#0081f6;fill-opacity:1;fill-rule:evenodd;stroke:#ffffff;stroke-linecap:butt;stroke-linejoin:miter;stroke-opacity:0.72156863" id="path1043" inkscape:connector-curvature="0"/>
    <text x="772.43195" y="596.02161" transform="scale(1,0.923461)" style="font-size:32px;font-style:normal;font-variant:normal;font-weight:bold;font-stretch:normal;line-height:100%;writing-mode:lr-tb;text-anchor:start;fill:#ffffff;fill-opacity:1;stroke:#ffffff;stroke-linecap:butt;stroke-linejoin:miter;stroke-opacity:0.72156863;font-family:Bitstream Vera Sans" id="text1070" xml:space="preserve" sodipodi:linespacing="100%"><tspan style="stroke:#ffffff;stroke-opacity:0.72156863" id="tspan1071">E</tspan></text>
  </g>
  <g transform="matrix(0.781983,0,0,0.781983,-139.56411,-47.793995)" style="stroke:#ffffff;stroke-width:1.125;stroke-miterlimit:4;stroke-opacity:0.72156863" id="g1099">
    <path d="m -302.73433,176.92265 a 21.623885,23.589692 0 1 1 -43.24777,0 21.623885,23.589692 0 1 1 43.24777,0 z" transform="matrix(1.407723,0,0,1.290334,756.9684,310.2035)" style="fill:#0081f6;fill-opacity:1;fill-rule:evenodd;stroke:#ffffff;stroke-linecap:butt;stroke-linejoin:miter;stroke-opacity:0.72156863" id="path1042" inkscape:connector-curvature="0"/>
    <text x="280.53375" y="596.24664" transform="scale(1,0.923461)" style="font-size:36px;font-style:normal;font-variant:normal;font-weight:bold;font-stretch:normal;line-height:100%;writing-mode:lr-tb;text-anchor:start;fill:#ffffff;fill-opacity:1;stroke:#ffffff;stroke-linecap:butt;stroke-linejoin:miter;stroke-opacity:0.72156863;font-family:Bitstream Vera Sans" id="text1091" xml:space="preserve" sodipodi:linespacing="100%"><tspan style="stroke:#ffffff;stroke-opacity:0.72156863" id="tspan1092">W</tspan></text>
  </g>
  <g transform="matrix(0.781983,0,0,0.781983,395.67899,-51.234295)" id="g1886">
    <path d="m 348.29439,341.71262 27.70367,27.28505 0,0 0,0" transform="translate(-683.4228,5.4456)" style="fill:#ffffff;fill-opacity:1;fill-rule:evenodd;stroke:#ffffff;stroke-width:0.96096859pt;stroke-linecap:butt;stroke-linejoin:miter;stroke-opacity:1" id="path1057" inkscape:connector-curvature="0"/>
    <text x="-81.603394" y="563.56293" transform="matrix(0.646957,-0.704163,0.762526,0.597439,-683.4228,5.4456)" style="font-size:20px;font-style:normal;font-variant:normal;font-weight:bold;font-stretch:normal;line-height:100%;writing-mode:lr-tb;text-anchor:start;fill:#ffffff;fill-opacity:1;stroke:none;font-family:Bitstream Vera Sans" id="text1085" xml:space="preserve" sodipodi:linespacing="100%"><tspan id="tspan1086">NW</tspan></text>
  </g>
  <g transform="matrix(0.781983,0,0,0.781983,394.13379,-51.325195)" id="g1891">
    <path d="m 710.12512,370.65813 27.36065,-27.62899 0,0 0,0" transform="translate(-683.4228,5.4456)" style="fill:#ffffff;fill-opacity:1;fill-rule:evenodd;stroke:#ffffff;stroke-width:0.96096859pt;stroke-linecap:butt;stroke-linejoin:miter;stroke-opacity:1" id="path1060" inkscape:connector-curvature="0"/>
    <text x="773.31976" y="-197.19197" transform="matrix(0.709334,0.650922,-0.704873,0.655042,-683.4228,5.4456)" style="font-size:20px;font-style:normal;font-variant:normal;font-weight:bold;font-stretch:normal;line-height:100%;writing-mode:lr-tb;text-anchor:start;fill:#ffffff;fill-opacity:1;stroke:none;font-family:Bitstream Vera Sans" id="text1073" xml:space="preserve" sodipodi:linespacing="100%"><tspan id="tspan1074">NE</tspan></text>
  </g>
  <g transform="matrix(0.781983,0,0,0.781983,-139.56411,-47.793995)" style="stroke:#ffffff;stroke-width:1.125;stroke-miterlimit:4;stroke-opacity:0.72173911" id="g1094">
    <path d="m -302.73433,176.92265 a 21.623885,23.589692 0 1 1 -43.24777,0 21.623885,23.589692 0 1 1 43.24777,0 z" transform="matrix(1.407723,0,0,1.290334,1000.659,69.0129)" style="fill:#0081f6;fill-opacity:1;fill-rule:evenodd;stroke:#ffffff;stroke-linecap:butt;stroke-linejoin:miter;stroke-opacity:0.72173911" id="path1802" inkscape:connector-curvature="0"/>
    <text x="530.66187" y="333.60751" transform="scale(1,0.923461)" style="font-size:32px;font-style:normal;font-variant:normal;font-weight:bold;font-stretch:normal;line-height:100%;writing-mode:lr-tb;text-anchor:start;fill:#ffffff;fill-opacity:1;stroke:#ffffff;stroke-linecap:butt;stroke-linejoin:miter;stroke-opacity:0.72173911;font-family:Bitstream Vera Sans" id="text1079" xml:space="preserve" sodipodi:linespacing="100%"><tspan style="stroke:#ffffff;stroke-opacity:0.72173911" id="tspan1080">N</tspan></text>
  </g>
  <g transform="matrix(0.687849,0.371969,-0.371969,0.687849,579.35029,117.35303)" id="g2458">
    <g transform="translate(0,-4.882812e-6)" style="stroke:#000000;stroke-width:0.5;stroke-miterlimit:4;stroke-opacity:0.45652173" id="g2337">
      <path d="m -176.982,231.438 0,235.5222 17.6982,0 -17.6982,-235.5222" style="fill:#d50000;fill-opacity:1;fill-rule:evenodd;stroke-linecap:butt;stroke-linejoin:miter" id="path2335" inkscape:connector-curvature="0"/>
      <path d="m -176.982,231.438 0,235.5222 -17.6982,0 17.6982,-235.5222" style="fill:#ff8700;fill-opacity:1;fill-rule:evenodd;stroke-linecap:butt;stroke-linejoin:miter" id="path2336" inkscape:connector-curvature="0"/>
    </g>
    <path d="m -176.982,231.438 0,235.5222 17.6982,0 -17.6982,-235.5222" transform="matrix(1,0,0,-1,0,933.9204)" style="fill:#aeaeae;fill-opacity:1;fill-rule:evenodd;stroke:#000000;stroke-width:0.49452704;stroke-linecap:butt;stroke-linejoin:miter;stroke-miterlimit:4;stroke-opacity:0.45490196" id="path2341" inkscape:connector-curvature="0"/>
    <path d="m -176.982,231.438 0,235.5222 -17.6982,0 17.6982,-235.5222" transform="matrix(1,0,0,-1,0,933.9204)" style="fill:#6e6e6e;fill-opacity:1;fill-rule:evenodd;stroke:#000000;stroke-width:0.19781078;stroke-linecap:butt;stroke-linejoin:miter;stroke-miterlimit:4;stroke-opacity:0.45490196" id="path2342" inkscape:connector-curvature="0"/>
    <path d="m -260.74421,314.1153 a 13.869375,13.869375 0 1 1 -27.73875,0 13.869375,13.869375 0 1 1 27.73875,0 z" transform="matrix(1.221039,0,0,1.221039,158.5785,84.71645)" style="fill:url(#linearGradient1501);fill-opacity:1;fill-rule:evenodd;stroke:url(#linearGradient1503);stroke-width:1pt;stroke-linecap:butt;stroke-linejoin:miter;stroke-opacity:1" id="path2345" inkscape:connector-curvature="0"/>
    <path d="m -279.76504,330.36227 a 3.96268,3.96268 0 1 1 -7.92536,0 3.96268,3.96268 0 1 1 7.92536,0 z" transform="translate(106.9923,137.9012)" style="fill:#ffffff;fill-opacity:1;fill-rule:evenodd;stroke:none" id="path2348" inkscape:connector-curvature="0"/>
  </g>
  <path d="m 142.58185,229.00638 -13.73122,-3.84436 10.19493,-9.96941 3.53629,13.81377 z" style="fill:#ffffff;fill-opacity:1;fill-rule:evenodd;stroke:#ffffff;stroke-width:0.51806355;stroke-linecap:butt;stroke-linejoin:miter;stroke-miterlimit:4;stroke-opacity:1" id="path3202" inkscape:connector-curvature="0"/>
  <path d="m 441.39973,226.56247 -13.7944,3.61105 3.76993,-13.75183 10.02447,10.14078 z" style="fill:#ffffff;fill-opacity:1;fill-rule:evenodd;stroke:#ffffff;stroke-width:0.51806319;stroke-linecap:butt;stroke-linejoin:miter;stroke-miterlimit:4;stroke-opacity:1" id="path3203" inkscape:connector-curvature="0"/>
  <path d="m 441.73818,520.06015 -10.00999,10.1551 -3.78958,-13.74646 13.79957,3.59136 z" style="fill:#ffffff;fill-opacity:1;fill-rule:evenodd;stroke:#ffffff;stroke-width:0.51806408;stroke-linecap:butt;stroke-linejoin:miter;stroke-miterlimit:4;stroke-opacity:1" id="path3204" inkscape:connector-curvature="0"/>
  <path d="m 137.7795,530.08372 -10.15993,-10.0051 13.74463,-3.79621 -3.5847,13.80131 z" style="fill:#ffffff;fill-opacity:1;fill-rule:evenodd;stroke:#ffffff;stroke-width:0.51806414;stroke-linecap:butt;stroke-linejoin:miter;stroke-miterlimit:4;stroke-opacity:1" id="path3205" inkscape:connector-curvature="0"/>
</svg>