<?xml version="1.0" encoding="UTF-8" standalone="no"?>
<!-- Created with Inkscape (http://www.inkscape.org/) -->

<svg
   xmlns:dc="http://purl.org/dc/elements/1.1/"
   xmlns:cc="http://creativecommons.org/ns#"
   xmlns:rdf="http://www.w3.org/1999/02/22-rdf-syntax-ns#"
   xmlns:svg="http://www.w3.org/2000/svg"
   xmlns="http://www.w3.org/2000/svg"
   xmlns:xlink="http://www.w3.org/1999/xlink"
   xmlns:sodipodi="http://sodipodi.sourceforge.net/DTD/sodipodi-0.dtd"
   xmlns:inkscape="http://www.inkscape.org/namespaces/inkscape"
   width="210mm"
   height="297mm"
   id="svg2"
   version="1.1"
   inkscape:version="0.48.4 r9939"
   sodipodi:docname="ic_comments_src.svg"
   inkscape:export-filename="d:\Users\Martin.Dickschiff-Win7\Programming\Java\TT_DownLoaderAND\res\drawable\ic_route.png"
   inkscape:export-xdpi="21.600048"
   inkscape:export-ydpi="21.600048">
  <defs
     id="defs4">
    <inkscape:path-effect
       effect="spiro"
       id="path-effect3145"
       is_visible="true" />
    <inkscape:path-effect
       effect="spiro"
       id="path-effect3141"
       is_visible="true" />
    <inkscape:path-effect
       effect="spiro"
       id="path-effect3133"
       is_visible="true" />
    <inkscape:path-effect
       effect="spiro"
       id="path-effect3129"
       is_visible="true" />
    <inkscape:path-effect
       effect="skeletal"
       id="path-effect3123"
       is_visible="true"
       pattern="M 0,5 10,10 10,0 z"
       copytype="single_stretched"
       prop_scale="1"
       scale_y_rel="false"
       spacing="0"
       normal_offset="0"
       tang_offset="0"
       prop_units="false"
       vertical_pattern="false"
       fuse_tolerance="0" />
    <inkscape:path-effect
       effect="spiro"
       id="path-effect3121"
       is_visible="true" />
    <inkscape:path-effect
       effect="skeletal"
       id="path-effect3114"
       is_visible="true"
       pattern="M 0,5 10,10 10,0 z"
       copytype="single_stretched"
       prop_scale="1"
       scale_y_rel="false"
       spacing="0"
       normal_offset="0"
       tang_offset="0"
       prop_units="false"
       vertical_pattern="false"
       fuse_tolerance="0" />
    <inkscape:path-effect
       effect="spiro"
       id="path-effect3112"
       is_visible="true" />
    <inkscape:path-effect
       effect="skeletal"
       id="path-effect3108"
       is_visible="true"
       pattern="m -52.527932,5 10,5 0,-10 z"
       copytype="single_stretched"
       prop_scale="1"
       scale_y_rel="false"
       spacing="0"
       normal_offset="0"
       tang_offset="0"
       prop_units="false"
       vertical_pattern="false"
       fuse_tolerance="0" />
    <inkscape:path-effect
       effect="spiro"
       id="path-effect3106"
       is_visible="true" />
    <inkscape:path-effect
       effect="spiro"
       id="path-effect3102"
       is_visible="true" />
    <inkscape:path-effect
       effect="spiro"
       id="path-effect3094"
       is_visible="true" />
    <linearGradient
       id="linearGradient3066">
      <stop
         style="stop-color:#ff9955;stop-opacity:1"
         offset="0"
         id="stop3068" />
      <stop
         style="stop-color:#ff9955;stop-opacity:0;"
         offset="1"
         id="stop3070" />
    </linearGradient>
    <radialGradient
       inkscape:collect="always"
       xlink:href="#linearGradient3066"
       id="radialGradient3117"
       gradientUnits="userSpaceOnUse"
       gradientTransform="matrix(7.3431912,0.11525978,-0.19958872,11.41043,-964.70251,-4426.764)"
       cx="194.08092"
       cy="445.59827"
       fx="194.08092"
       fy="445.59827"
       r="113.82048" />
    <radialGradient
       inkscape:collect="always"
       xlink:href="#linearGradient3066-7"
       id="radialGradient3074"
       cx="207.64952"
       cy="409.30176"
       fx="207.64952"
       fy="409.30176"
       r="113.82048"
       gradientTransform="matrix(0.99986995,-0.00993534,0.05020437,1.9176277,-19.599823,-356.68765)"
       gradientUnits="userSpaceOnUse" />
    <linearGradient
       inkscape:collect="always"
       id="linearGradient3066-7">
      <stop
         style="stop-color:#ff9955;stop-opacity:1"
         offset="0"
         id="stop3068-9" />
      <stop
         style="stop-color:#ff9955;stop-opacity:0;"
         offset="1"
         id="stop3070-0" />
    </linearGradient>
    <radialGradient
       r="113.82048"
       fy="396.78036"
       fx="248.25888"
       cy="396.78036"
       cx="248.25888"
       gradientTransform="matrix(0.97175671,-0.46147216,1.0856755,2.7754749,-431.6821,-594.89687)"
       gradientUnits="userSpaceOnUse"
       id="radialGradient4404"
       xlink:href="#linearGradient3066-7"
       inkscape:collect="always" />
  </defs>
  <sodipodi:namedview
     id="base"
     pagecolor="#ffffff"
     bordercolor="#666666"
     borderopacity="1.0"
     inkscape:pageopacity="0.0"
     inkscape:pageshadow="2"
     inkscape:zoom="0.98994949"
     inkscape:cx="554.52443"
     inkscape:cy="519.57749"
     inkscape:document-units="px"
     inkscape:current-layer="layer1"
     showgrid="false"
     inkscape:window-width="1280"
     inkscape:window-height="972"
     inkscape:window-x="1912"
     inkscape:window-y="-8"
     inkscape:window-maximized="1" />
  <metadata
     id="metadata7">
    <rdf:RDF>
      <cc:Work
         rdf:about="">
        <dc:format>image/svg+xml</dc:format>
        <dc:mType
           rdf:resource="http://purl.org/dc/dcmitype/StillImage" />
        <dc:title></dc:title>
      </cc:Work>
    </rdf:RDF>
  </metadata>
  <g
     inkscape:label="Ebene 1"
     inkscape:groupmode="layer"
     id="layer1"
     style="display:inline">
    <path
       style="fill:url(#radialGradient3117);fill-opacity:1;stroke-width:1.5;stroke-linejoin:round;stroke-miterlimit:4"
       inkscape:transform-center-x="1.3011604e-005"
       inkscape:transform-center-y="-94.051882"
       d="M 316.24261,200.07318 C 702.24797,52.930076 676.01724,772.44604 676.01724,772.44604 l -599.624405,-3e-5 c 0,0 4.758674,-482.75742 239.849775,-572.37283 z"
       id="path2985"
       inkscape:connector-curvature="0"
       sodipodi:nodetypes="sccs"
       inkscape:export-filename="d:\Users\Martin.Dickschiff-Win7\Programming\Java\TT_DownLoaderAND\res\drawable\ic_comments_colour.png"
       inkscape:export-xdpi="21.600002"
       inkscape:export-ydpi="21.600002" />
    <path
       style="fill:#000000;fill-rule:evenodd;stroke:none"
       d="m 382.68311,305.62627 c 2.61708,13.07395 3.85001,26.41175 3.67682,39.71868 -0.12571,9.61521 -0.98292,19.26622 -0.25685,28.94073 0,10e-6 1e-5,2e-5 1e-5,3e-5 1.46663,19.31612 9.21466,37.6955 19.08198,54.32999 9.85582,16.63692 21.80453,31.85888 32.6376,47.66968 6.61371,9.65517 12.88056,19.62966 19.96385,29.13189 0,1e-5 1e-5,2e-5 2e-5,3e-5 2.56548,3.46031 5.35355,6.95036 8.86294,9.86362 3.51416,2.93693 7.88593,5.13413 12.71529,5.58075 1.82013,0.16866 3.32733,0.0446 4.37458,0.40252 10e-6,0 10e-6,10e-6 2e-5,10e-6 0.51512,0.16879 0.95799,0.36387 1.20527,0.62713 0,0 0,0 0,10e-6 0.22643,0.24824 0.41537,0.52166 0.39074,0.6831 0.0547,0.13372 -0.0562,0.45371 -0.17728,0.91806 -0.15405,0.46402 -0.42962,1.07215 -0.68578,1.87637 -1e-5,10e-6 -1e-5,2e-5 -2e-5,3e-5 -0.28972,0.80688 -0.427,1.8367 -0.25723,3.03035 0.10103,0.59958 0.33868,1.20711 0.72052,1.79012 0.38638,0.58947 0.94452,1.08403 1.65336,1.43953 0.75751,0.33152 1.46145,0.45968 2.06452,0.42458 0.59303,-0.0224 1.06684,-0.0968 1.42125,-0.17242 10e-6,0 2e-5,0 3e-5,0 0.35606,-0.062 0.59652,-0.11693 0.72503,-0.11446 0.12177,0.016 0.14448,-0.003 0.0315,-0.012 -0.10385,-0.0454 -0.15504,-0.0667 -0.17919,-0.10162 -0.0196,-0.0305 -0.0222,-0.0127 -0.007,0.021 0,0 0,0 0,0 0.0615,0.0656 0.002,0.32993 -0.0538,0.69576 -0.15952,0.75601 -0.9397,1.95555 -1.37685,3.90651 -0.2517,1.44574 -0.13189,2.83296 0.24013,4.05833 0,10e-6 10e-6,2e-5 10e-6,4e-5 0.36133,1.21805 0.86617,2.28435 1.39644,3.21891 1.01121,1.88964 2.08439,3.33801 2.33539,4.65377 0.3545,1.19972 0.18025,2.76308 0.076,4.57492 -0.14474,1.8516 -0.24013,3.72191 -0.25688,5.60845 -0.0647,7.22182 -0.12945,14.44365 -0.19418,21.66547 0,10e-6 0,2e-5 0,3e-5 -0.0138,2.00358 0.14611,3.97372 0.41502,5.894 0.11345,0.89603 0.2234,1.64669 0.18735,2.24639 -0.0649,0.57422 -0.10969,1.01552 -0.26787,1.15151 0,0 0,0 0,0 -0.0494,0.20564 -0.5191,0.48633 -1.15756,0.9998 -0.69701,0.45611 -1.64563,1.12091 -2.64168,2.20216 -1.38499,1.78632 -1.97977,3.49295 -2.35369,4.70358 0,10e-6 0,2e-5 0,3e-5 -0.22638,0.58446 -0.40675,1.05555 -0.61425,1.36239 -0.21161,0.29102 -0.36527,0.50526 -0.47344,0.53144 -0.0737,0.0729 -0.30695,0.11349 -0.60812,0.1658 -0.31336,0.0464 -0.74144,0.001 -1.26497,-0.0643 -1.04803,-0.16171 -2.49512,-0.5773 -4.41802,-0.68262 -1e-5,0 -2e-5,0 -3e-5,-10e-6 -2.82015,-0.0842 -5.56398,0.89956 -7.69474,2.77054 -1.80445,1.44079 -2.81055,3.60069 -2.75203,5.97986 -2.04467,0.70625 -4.07322,1.40074 -6.08564,2.08347 -1.47077,-0.46446 -3.01259,-0.51191 -4.48659,-0.13861 -2.55113,0.60329 -4.77764,1.8871 -6.52033,3.56572 -1e-5,10e-6 -2e-5,2e-5 -3e-5,3e-5 -1.73414,1.66279 -3.0533,3.57185 -4.0351,5.52774 -1.95321,3.90227 -2.8836,7.76031 -4.14019,10.97814 -2.38726,6.19038 -6.61787,11.71833 -11.47644,16.70538 -1.52769,1.54675 -3.25248,3.1788 -4.91619,5.13847 -1.68857,1.95237 -3.20377,4.32426 -4.1576,7.14971 0,2e-5 -1e-5,3e-5 -1e-5,4e-5 -0.91942,3.03859 -1.0428,5.99513 -0.83918,8.64145 0.15916,2.63902 0.50239,4.99602 0.5312,7.09039 0.068,4.17157 -0.98353,9.23762 -0.0604,15.09085 0.92413,4.65148 2.86436,8.38913 4.16449,11.64873 1.09717,2.80557 1.95194,5.98336 3.16615,9.33143 1.17874,3.37199 2.86576,6.88706 5.51459,10.05992 2.65138,2.99438 5.47192,4.96018 7.50689,6.82953 0.999,0.94952 1.85536,1.84469 2.40832,2.75192 0.53463,0.89928 0.92459,1.76798 0.95877,2.49923 0.19172,0.99255 -0.40317,3.19035 -0.10147,6.56437 0,1e-5 0,2e-5 10e-6,2e-5 0.12796,1.73066 0.83497,3.63464 2.24731,5.4677 0.7371,0.90157 1.70829,1.66565 2.8901,2.23964 1.19515,0.57827 2.56353,0.83118 4.03513,0.71813 1.89233,-0.2995 2.73343,-0.65728 2.60701,-0.6141 -0.0713,0.0688 -0.38253,0.0405 -0.9684,-0.028 -0.66116,-0.0686 -1.29694,-0.53646 -2.02329,-1.41693 -0.43736,-0.83722 -0.6438,-1.3727 -0.57039,-1.66995 0.0199,-0.24737 -0.01,-0.2304 -0.0372,0.0516 -0.13551,0.79145 -0.22038,1.6517 -0.23086,2.57574 -0.0647,7.22184 -0.12945,14.44368 -0.19418,21.66552 l 10,0 c -0.0647,-7.22184 -0.12945,-14.44368 -0.19418,-21.66552 -0.0105,-0.29898 0.024,-0.65984 0.0799,-1.07633 0.0681,-0.32233 0.13058,-0.91408 0.13631,-1.77316 0.0592,-0.90887 -0.27721,-2.06922 -1.0547,-3.41496 -1.12601,-1.478 -2.42826,-2.33479 -3.79025,-2.56341 -1.28697,-0.22863 -2.3337,-0.20517 -3.10873,0.0116 -1.53406,0.33912 -2.01671,0.65473 -1.55622,0.49275 0.3837,-0.009 0.64145,0.0278 0.84534,0.14578 0.19049,0.11369 0.28827,0.17841 0.31961,0.24542 9.7e-4,0.16415 -0.0119,-0.0984 -0.15171,-0.53698 0,-10e-6 0,-10e-6 0,-10e-6 -0.23388,-0.96542 0.3216,-3.18187 -0.0128,-6.52991 -0.35231,-2.45755 -1.25147,-4.62656 -2.4809,-6.41166 -1.2112,-1.77732 -2.58567,-3.23261 -3.96642,-4.44083 -2.72458,-2.44614 -5.32245,-4.1035 -6.89036,-5.95417 -1.70785,-1.82995 -2.91771,-4.4214 -4.05635,-7.2654 -1.10323,-2.86809 -2.04121,-6.0969 -3.40405,-9.45245 -1.56368,-3.91286 -3.40916,-7.07706 -3.90605,-10.01677 -0.85249,-3.63214 0.15536,-8.3221 -0.0604,-13.79649 -0.1137,-2.74962 -0.50479,-5.19923 -0.67654,-7.395 0,0 0,-10e-6 0,-2e-5 -0.12728,-2.1883 -0.16464,-4.17601 0.36856,-5.76052 0,0 1e-5,-10e-6 1e-5,-2e-5 0.40952,-1.5135 1.41533,-3.03871 2.62817,-4.58879 1.23782,-1.54291 2.80782,-3.06305 4.43916,-4.78851 5.27562,-5.51021 9.9274,-11.95946 12.7352,-19.4038 1.44722,-3.87848 2.2091,-7.52084 3.66476,-10.40444 0.72259,-1.43695 1.5448,-2.73357 2.55485,-3.69484 0,-10e-6 1e-5,-10e-6 1e-5,-10e-6 1.00125,-0.9452 2.14792,-1.68925 3.29641,-1.93832 10e-6,0 2e-5,0 2e-5,0 1.1699,-0.23584 2.41085,-0.28328 3.58397,-0.13861 3.36797,-1.72454 6.71981,-3.43733 10.05552,-5.13835 0.39334,-1.58379 1.28916,-3.23806 2.44844,-4.44934 0,0 0,-10e-6 1e-5,-10e-6 0.83297,-0.78108 2.09035,-1.26551 3.24588,-1.24395 10e-6,0 2e-5,0 2e-5,-10e-6 0.82906,-0.0321 2.06016,0.34145 3.73962,0.55317 0.8402,0.12142 1.79848,0.15851 2.85173,0.0406 1.06537,-0.11202 2.18285,-0.49063 3.25861,-1.17483 1.06024,-0.74338 1.83442,-1.62514 2.34094,-2.53483 0.51067,-0.89392 0.8496,-1.73113 1.09256,-2.46473 0.56474,-1.42544 0.76635,-2.5027 1.1957,-2.84668 0.18088,-0.30064 0.76734,-0.6543 1.54433,-1.25748 0.83546,-0.54579 1.83099,-1.4186 2.72697,-2.7624 0.79566,-1.4273 1.10918,-2.85176 1.08322,-4.10843 0.003,-1.23139 -0.14379,-2.30399 -0.29749,-3.21989 -0.26511,-1.70169 -0.43739,-3.38776 -0.45123,-5.04532 -0.0647,-7.22183 -0.12946,-14.44367 -0.19418,-21.6655 -0.0168,-1.73531 0.042,-3.48581 0.14703,-5.24743 0.14565,-1.8022 0.2336,-3.92951 -0.32788,-6.23474 -0.74118,-2.48074 -2.00529,-4.30617 -2.92601,-5.83201 -0.43571,-0.77318 -0.8075,-1.47889 -0.99855,-2.14349 0,0 -1e-5,-10e-6 -1e-5,-10e-6 -0.18031,-0.65714 -0.27987,-1.27573 -0.174,-1.759 0.0518,-0.68705 0.79688,-1.83003 1.25629,-3.68459 0.25355,-0.93923 0.26695,-2.06678 -0.079,-3.27898 -1e-5,-2e-5 -1e-5,-3e-5 -2e-5,-5e-5 -0.18885,-0.60527 -0.51498,-1.19127 -0.97726,-1.72555 -0.46685,-0.53867 -1.08178,-0.96174 -1.81717,-1.23283 -0.75638,-0.23889 -1.43148,-0.30183 -1.99114,-0.23553 -2e-5,0 -3e-5,0 -5e-5,0 -0.55295,0.0528 -0.98337,0.13966 -1.29756,0.21061 0,0 -10e-6,0 -10e-6,0 -0.31586,0.0573 -0.51757,0.10792 -0.60768,0.10135 -0.08,-0.0192 -0.0723,0.0114 0.0682,0.0493 0.12089,0.0757 0.17944,0.11783 0.19901,0.16932 0.015,0.045 0.0159,0.0308 -0.003,-0.01 -1e-5,0 -1e-5,0 -1e-5,0 -0.0704,-0.0863 0.0142,-0.38274 0.10258,-0.82204 1e-5,-10e-6 1e-5,-2e-5 1e-5,-2e-5 0.12197,-0.44208 0.37852,-1.02842 0.62616,-1.80331 0.28063,-0.77449 0.44128,-1.76576 0.32893,-2.92361 -0.23121,-1.43587 -0.92388,-2.63202 -1.89485,-3.46094 -0.95045,-0.81421 -2.0053,-1.32618 -3.04361,-1.58438 -10e-6,0 -10e-6,0 -2e-5,0 -2.05986,-0.49613 -3.83893,-0.39023 -5.23203,-0.46371 -3.68028,-0.19464 -7.30637,-2.0025 -10.4245,-4.43565 -3.12412,-2.45782 -5.75235,-5.67108 -8.35008,-9.00732 0,-10e-6 -1e-5,-10e-6 -1e-5,-10e-6 -7.12819,-9.20496 -13.55147,-19.03689 -20.38893,-28.64285 -11.19569,-15.73283 -23.36242,-30.65895 -33.40399,-46.95166 -10e-6,-1e-5 -10e-6,-2e-5 -2e-5,-3e-5 -10.02872,-16.29294 -18.02647,-34.24075 -19.7937,-53.26011 0,-10e-6 0,-10e-6 0,-2e-5 -0.89352,-9.52489 -0.20887,-19.18179 -0.25685,-28.83401 -0.0656,-13.35841 -1.5428,-26.69664 -4.3938,-39.72158 z"
       id="path3104"
       inkscape:path-effect="#path-effect3106;#path-effect3108"
       inkscape:original-d="m 382.68311,305.62627 c 5.14095,27.60184 4.03531,14.34408 4.03531,39.72013 0,9.62911 -1.76907,19.38925 0,28.88737 6.97825,37.46641 30.47954,69.63742 52.45865,101.10576 6.72548,9.62912 12.05273,20.16409 20.17639,28.88737 5.51378,5.92071 13.16789,9.96405 20.17642,14.44369 2.44749,1.56434 6.40219,1.37151 8.07056,3.6109 1.49227,2.00298 -1.20308,5.0687 0,7.22185 0.60157,1.07657 3.43375,-1.07658 4.03529,0 1.20309,2.15314 -0.52758,4.8613 0,7.22182 0.83419,3.73233 3.33601,7.07832 4.03527,10.83278 0.66342,3.56179 0,7.22183 0,10.83277 0,7.22183 0,14.44368 0,21.6655 0,3.61093 0.9787,7.32966 0,10.83277 -0.46136,1.65138 -2.9801,2.19459 -4.03527,3.61092 -1.66837,2.23939 -1.53271,5.72891 -4.03529,7.22184 -2.23837,1.33531 -5.66437,-1.07656 -8.07056,0 -3.40284,1.52251 -5.02696,5.17919 -8.07055,7.22185 -2.69019,1.20364 -5.3804,2.40727 -8.07058,3.61091 -1.34509,0 -2.83219,-0.53829 -4.03529,0 -5.53484,2.4764 -11.89344,17.71251 -12.10584,18.05462 -3.80896,6.13514 -7.94895,12.10302 -12.10582,18.05459 -2.5704,3.68013 -6.53693,6.71568 -8.07057,10.83277 -1.70144,4.56748 0,9.62911 0,14.44369 0,4.81454 -0.76091,9.67749 0,14.44367 0.60152,3.76799 2.69019,7.22184 4.03527,10.83275 2.18744,5.87217 4.11223,12.74147 8.07057,18.0546 3.73061,5.00746 8.76907,9.21842 12.10583,14.44367 2.11036,3.30477 1.67584,7.66578 4.0353,10.83278 0.74611,1.00147 3.08414,-0.8511 4.03526,0 0.95114,0.8511 0,2.40726 0,3.61092 0,7.22184 0,14.44367 0,21.66552"
       inkscape:connector-curvature="0"
       inkscape:export-filename="d:\Users\Martin.Dickschiff-Win7\Programming\Java\TT_DownLoaderAND\res\drawable\ic_comments_colour.png"
       inkscape:export-xdpi="21.600002"
       inkscape:export-ydpi="21.600002" />
    <path
       style="fill:none;stroke:#000000;stroke-width:0.66538471px;stroke-linecap:butt;stroke-linejoin:miter;stroke-opacity:1"
       d="m 193.29387,758.69649 c 52.92512,-26.7947 60.14218,-29.94703 60.14218,-29.94703"
       id="path3149"
       inkscape:connector-curvature="0"
       inkscape:export-filename="d:\Users\Martin.Dickschiff-Win7\Programming\Java\TT_DownLoaderAND\res\drawable\ic_comments_colour.png"
       inkscape:export-xdpi="21.600002"
       inkscape:export-ydpi="21.600002" />
    <path
       style="fill:none;stroke:#000000;stroke-width:0.66538471px;stroke-linecap:butt;stroke-linejoin:miter;stroke-opacity:1"
       d="m 193.29387,742.99099 c 52.92512,-26.79474 60.14218,-29.94704 60.14218,-29.94704"
       id="path3149-4"
       inkscape:connector-curvature="0"
       inkscape:export-filename="d:\Users\Martin.Dickschiff-Win7\Programming\Java\TT_DownLoaderAND\res\drawable\ic_comments_colour.png"
       inkscape:export-xdpi="21.600002"
       inkscape:export-ydpi="21.600002" />
    <path
       style="fill:none;stroke:#000000;stroke-width:0.66538471px;stroke-linecap:butt;stroke-linejoin:miter;stroke-opacity:1"
       d="m 193.29387,601.92342 c 52.92512,-26.7947 60.14218,-29.94699 60.14218,-29.94699"
       id="path3149-4-5"
       inkscape:connector-curvature="0"
       inkscape:export-filename="d:\Users\Martin.Dickschiff-Win7\Programming\Java\TT_DownLoaderAND\res\drawable\ic_comments_colour.png"
       inkscape:export-xdpi="21.600002"
       inkscape:export-ydpi="21.600002" />
    <path
       style="fill:none;stroke:#000000;stroke-width:0.66538471px;stroke-linecap:butt;stroke-linejoin:miter;stroke-opacity:1"
       d="m 193.29387,617.57254 c 52.92512,-26.79471 60.14218,-29.94703 60.14218,-29.94703"
       id="path3149-4-5-3"
       inkscape:connector-curvature="0"
       inkscape:export-filename="d:\Users\Martin.Dickschiff-Win7\Programming\Java\TT_DownLoaderAND\res\drawable\ic_comments_colour.png"
       inkscape:export-xdpi="21.600002"
       inkscape:export-ydpi="21.600002" />
    <path
       style="fill:none;stroke:#000000;stroke-width:0.66538471px;stroke-linecap:butt;stroke-linejoin:miter;stroke-opacity:1"
       d="m 193.29387,633.22163 c 52.92512,-26.79471 60.14218,-29.94702 60.14218,-29.94702"
       id="path3149-4-5-3-0"
       inkscape:connector-curvature="0"
       inkscape:export-filename="d:\Users\Martin.Dickschiff-Win7\Programming\Java\TT_DownLoaderAND\res\drawable\ic_comments_colour.png"
       inkscape:export-xdpi="21.600002"
       inkscape:export-ydpi="21.600002" />
    <path
       style="fill:none;stroke:#000000;stroke-width:0.66538471px;stroke-linecap:butt;stroke-linejoin:miter;stroke-opacity:1"
       d="m 193.29387,648.92716 c 52.92512,-26.79473 60.14218,-29.94705 60.14218,-29.94705"
       id="path3149-4-5-3-0-8"
       inkscape:connector-curvature="0"
       inkscape:export-filename="d:\Users\Martin.Dickschiff-Win7\Programming\Java\TT_DownLoaderAND\res\drawable\ic_comments_colour.png"
       inkscape:export-xdpi="21.600002"
       inkscape:export-ydpi="21.600002" />
    <path
       style="fill:none;stroke:#000000;stroke-width:0.66538471px;stroke-linecap:butt;stroke-linejoin:miter;stroke-opacity:1"
       d="m 193.29387,664.57626 c 52.92512,-26.7947 60.14218,-29.94704 60.14218,-29.94704"
       id="path3149-4-5-3-0-8-9"
       inkscape:connector-curvature="0"
       inkscape:export-filename="d:\Users\Martin.Dickschiff-Win7\Programming\Java\TT_DownLoaderAND\res\drawable\ic_comments_colour.png"
       inkscape:export-xdpi="21.600002"
       inkscape:export-ydpi="21.600002" />
    <path
       style="fill:none;stroke:#000000;stroke-width:0.66538471px;stroke-linecap:butt;stroke-linejoin:miter;stroke-opacity:1"
       d="m 193.29387,680.25356 c 52.92512,-26.79471 60.14218,-29.94703 60.14218,-29.94703"
       id="path3149-4-5-3-0-8-9-1"
       inkscape:connector-curvature="0"
       inkscape:export-filename="d:\Users\Martin.Dickschiff-Win7\Programming\Java\TT_DownLoaderAND\res\drawable\ic_comments_colour.png"
       inkscape:export-xdpi="21.600002"
       inkscape:export-ydpi="21.600002" />
    <path
       style="fill:none;stroke:#000000;stroke-width:0.66538471px;stroke-linecap:butt;stroke-linejoin:miter;stroke-opacity:1"
       d="m 193.29387,695.90266 c 52.92512,-26.79471 60.14218,-29.94702 60.14218,-29.94702"
       id="path3149-4-5-3-0-8-9-1-3"
       inkscape:connector-curvature="0"
       inkscape:export-filename="d:\Users\Martin.Dickschiff-Win7\Programming\Java\TT_DownLoaderAND\res\drawable\ic_comments_colour.png"
       inkscape:export-xdpi="21.600002"
       inkscape:export-ydpi="21.600002" />
    <path
       style="fill:none;stroke:#000000;stroke-width:0.66538471px;stroke-linecap:butt;stroke-linejoin:miter;stroke-opacity:1"
       d="m 193.29387,711.57995 c 52.92512,-26.7947 60.14218,-29.947 60.14218,-29.947"
       id="path3149-4-5-3-0-8-9-1-3-4"
       inkscape:connector-curvature="0"
       inkscape:export-filename="d:\Users\Martin.Dickschiff-Win7\Programming\Java\TT_DownLoaderAND\res\drawable\ic_comments_colour.png"
       inkscape:export-xdpi="21.600002"
       inkscape:export-ydpi="21.600002" />
    <path
       style="fill:none;stroke:#000000;stroke-width:0.66538471px;stroke-linecap:butt;stroke-linejoin:miter;stroke-opacity:1"
       d="m 193.29387,727.31367 c 52.92512,-26.79472 60.14218,-29.94703 60.14218,-29.94703"
       id="path3149-4-5-3-0-8-9-1-3-4-7"
       inkscape:connector-curvature="0"
       inkscape:export-filename="d:\Users\Martin.Dickschiff-Win7\Programming\Java\TT_DownLoaderAND\res\drawable\ic_comments_colour.png"
       inkscape:export-xdpi="21.600002"
       inkscape:export-ydpi="21.600002" />
    <path
       style="fill:none;stroke:#000000;stroke-width:0.66538471px;stroke-linecap:butt;stroke-linejoin:miter;stroke-opacity:1"
       d="m 193.29387,586.21793 c 52.92512,-26.79471 60.14218,-29.94703 60.14218,-29.94703"
       id="path3149-4-5-3-0-8-9-1-3-4-7-4"
       inkscape:connector-curvature="0"
       inkscape:transform-center-x="-6.3836469"
       inkscape:transform-center-y="91.604154"
       inkscape:export-filename="d:\Users\Martin.Dickschiff-Win7\Programming\Java\TT_DownLoaderAND\res\drawable\ic_comments_colour.png"
       inkscape:export-xdpi="21.600002"
       inkscape:export-ydpi="21.600002" />
    <path
       style="fill:none;stroke:#000000;stroke-width:0.66538471px;stroke-linecap:butt;stroke-linejoin:miter;stroke-opacity:1"
       d="M 313.0125,758.65399 C 260.08736,731.85928 252.8703,728.70695 252.8703,728.70695"
       id="path3149-48"
       inkscape:connector-curvature="0"
       inkscape:export-filename="d:\Users\Martin.Dickschiff-Win7\Programming\Java\TT_DownLoaderAND\res\drawable\ic_comments_colour.png"
       inkscape:export-xdpi="21.600002"
       inkscape:export-ydpi="21.600002" />
    <path
       style="fill:none;stroke:#000000;stroke-width:0.66538471px;stroke-linecap:butt;stroke-linejoin:miter;stroke-opacity:1"
       d="M 313.0125,742.97668 C 260.08736,716.18196 252.8703,713.02965 252.8703,713.02965"
       id="path3149-4-2"
       inkscape:connector-curvature="0"
       inkscape:export-filename="d:\Users\Martin.Dickschiff-Win7\Programming\Java\TT_DownLoaderAND\res\drawable\ic_comments_colour.png"
       inkscape:export-xdpi="21.600002"
       inkscape:export-ydpi="21.600002" />
    <path
       style="fill:none;stroke:#000000;stroke-width:0.66538471px;stroke-linecap:butt;stroke-linejoin:miter;stroke-opacity:1"
       d="M 313.0125,601.88093 C 260.08736,575.08622 252.8703,571.93391 252.8703,571.93391"
       id="path3149-4-5-36"
       inkscape:connector-curvature="0"
       inkscape:export-filename="d:\Users\Martin.Dickschiff-Win7\Programming\Java\TT_DownLoaderAND\res\drawable\ic_comments_colour.png"
       inkscape:export-xdpi="21.600002"
       inkscape:export-ydpi="21.600002" />
    <path
       style="fill:none;stroke:#000000;stroke-width:0.66538471px;stroke-linecap:butt;stroke-linejoin:miter;stroke-opacity:1"
       d="M 313.0125,617.55823 C 260.08736,590.76352 252.8703,587.61119 252.8703,587.61119"
       id="path3149-4-5-3-3"
       inkscape:connector-curvature="0"
       inkscape:export-filename="d:\Users\Martin.Dickschiff-Win7\Programming\Java\TT_DownLoaderAND\res\drawable\ic_comments_colour.png"
       inkscape:export-xdpi="21.600002"
       inkscape:export-ydpi="21.600002" />
    <path
       style="fill:none;stroke:#000000;stroke-width:0.66538471px;stroke-linecap:butt;stroke-linejoin:miter;stroke-opacity:1"
       d="M 313.0125,633.23553 C 260.08736,606.44082 252.8703,603.28851 252.8703,603.28851"
       id="path3149-4-5-3-0-0"
       inkscape:connector-curvature="0"
       inkscape:export-filename="d:\Users\Martin.Dickschiff-Win7\Programming\Java\TT_DownLoaderAND\res\drawable\ic_comments_colour.png"
       inkscape:export-xdpi="21.600002"
       inkscape:export-ydpi="21.600002" />
    <path
       style="fill:none;stroke:#000000;stroke-width:0.66538471px;stroke-linecap:butt;stroke-linejoin:miter;stroke-opacity:1"
       d="M 313.0125,648.91285 C 260.08736,622.11814 252.8703,618.96581 252.8703,618.96581"
       id="path3149-4-5-3-0-8-3"
       inkscape:connector-curvature="0"
       inkscape:export-filename="d:\Users\Martin.Dickschiff-Win7\Programming\Java\TT_DownLoaderAND\res\drawable\ic_comments_colour.png"
       inkscape:export-xdpi="21.600002"
       inkscape:export-ydpi="21.600002" />
    <path
       style="fill:none;stroke:#000000;stroke-width:0.66538471px;stroke-linecap:butt;stroke-linejoin:miter;stroke-opacity:1"
       d="M 313.0125,664.59016 C 260.08736,637.79545 252.8703,634.64313 252.8703,634.64313"
       id="path3149-4-5-3-0-8-9-5"
       inkscape:connector-curvature="0"
       inkscape:export-filename="d:\Users\Martin.Dickschiff-Win7\Programming\Java\TT_DownLoaderAND\res\drawable\ic_comments_colour.png"
       inkscape:export-xdpi="21.600002"
       inkscape:export-ydpi="21.600002" />
    <path
       style="fill:none;stroke:#000000;stroke-width:0.66538471px;stroke-linecap:butt;stroke-linejoin:miter;stroke-opacity:1"
       d="M 313.0125,680.26745 C 260.08736,653.47273 252.8703,650.32043 252.8703,650.32043"
       id="path3149-4-5-3-0-8-9-1-2"
       inkscape:connector-curvature="0"
       inkscape:export-filename="d:\Users\Martin.Dickschiff-Win7\Programming\Java\TT_DownLoaderAND\res\drawable\ic_comments_colour.png"
       inkscape:export-xdpi="21.600002"
       inkscape:export-ydpi="21.600002" />
    <path
       style="fill:none;stroke:#000000;stroke-width:0.66538471px;stroke-linecap:butt;stroke-linejoin:miter;stroke-opacity:1"
       d="m 313.0125,695.94474 c -52.92514,-26.7947 -60.1422,-29.94701 -60.1422,-29.94701"
       id="path3149-4-5-3-0-8-9-1-3-8"
       inkscape:connector-curvature="0"
       inkscape:export-filename="d:\Users\Martin.Dickschiff-Win7\Programming\Java\TT_DownLoaderAND\res\drawable\ic_comments_colour.png"
       inkscape:export-xdpi="21.600002"
       inkscape:export-ydpi="21.600002" />
    <path
       style="fill:none;stroke:#000000;stroke-width:0.66538471px;stroke-linecap:butt;stroke-linejoin:miter;stroke-opacity:1"
       d="m 313.0125,711.62207 c -52.92514,-26.7947 -60.1422,-29.94701 -60.1422,-29.94701"
       id="path3149-4-5-3-0-8-9-1-3-4-0"
       inkscape:connector-curvature="0"
       inkscape:export-filename="d:\Users\Martin.Dickschiff-Win7\Programming\Java\TT_DownLoaderAND\res\drawable\ic_comments_colour.png"
       inkscape:export-xdpi="21.600002"
       inkscape:export-ydpi="21.600002" />
    <path
       style="fill:none;stroke:#000000;stroke-width:0.66538471px;stroke-linecap:butt;stroke-linejoin:miter;stroke-opacity:1"
       d="M 313.0125,727.29938 C 260.08736,700.50466 252.8703,697.35234 252.8703,697.35234"
       id="path3149-4-5-3-0-8-9-1-3-4-7-7"
       inkscape:connector-curvature="0"
       inkscape:export-filename="d:\Users\Martin.Dickschiff-Win7\Programming\Java\TT_DownLoaderAND\res\drawable\ic_comments_colour.png"
       inkscape:export-xdpi="21.600002"
       inkscape:export-ydpi="21.600002" />
    <path
       style="fill:none;stroke:#000000;stroke-width:0.66538471px;stroke-linecap:butt;stroke-linejoin:miter;stroke-opacity:1"
       d="m 313.0125,586.20361 c -52.92514,-26.7947 -60.1422,-29.94702 -60.1422,-29.94702"
       id="path3149-4-5-3-0-8-9-1-3-4-7-4-2"
       inkscape:connector-curvature="0"
       inkscape:transform-center-x="6.3836497"
       inkscape:transform-center-y="91.604143"
       inkscape:export-filename="d:\Users\Martin.Dickschiff-Win7\Programming\Java\TT_DownLoaderAND\res\drawable\ic_comments_colour.png"
       inkscape:export-xdpi="21.600002"
       inkscape:export-ydpi="21.600002" />
    <path
       style="fill:none;stroke:#000000;stroke-width:0.66538471px;stroke-linecap:butt;stroke-linejoin:miter;stroke-opacity:1"
       d="m 228.22316,772.67945 c 25.17223,-13.39186 25.21289,-13.02336 25.21289,-13.02336"
       id="path3149-9"
       inkscape:connector-curvature="0"
       sodipodi:nodetypes="cc"
       inkscape:export-filename="d:\Users\Martin.Dickschiff-Win7\Programming\Java\TT_DownLoaderAND\res\drawable\ic_comments_colour.png"
       inkscape:export-xdpi="21.600002"
       inkscape:export-ydpi="21.600002" />
    <path
       style="fill:none;stroke:#000000;stroke-width:0.66538471px;stroke-linecap:butt;stroke-linejoin:miter;stroke-opacity:1"
       d="m 197.94147,772.14248 c 53.85463,-26.15649 55.49458,-27.39411 55.49458,-27.39411"
       id="path3149-4-1"
       inkscape:connector-curvature="0"
       sodipodi:nodetypes="cc"
       inkscape:export-filename="d:\Users\Martin.Dickschiff-Win7\Programming\Java\TT_DownLoaderAND\res\drawable\ic_comments_colour.png"
       inkscape:export-xdpi="21.600002"
       inkscape:export-ydpi="21.600002" />
    <path
       style="fill:none;stroke:#000000;stroke-width:0.66538471px;stroke-linecap:butt;stroke-linejoin:miter;stroke-opacity:1"
       d="M 278.08319,772.50005 C 252.91095,759.10819 252.8703,759.47669 252.8703,759.47669"
       id="path3149-9-0"
       inkscape:connector-curvature="0"
       sodipodi:nodetypes="cc"
       inkscape:export-filename="d:\Users\Martin.Dickschiff-Win7\Programming\Java\TT_DownLoaderAND\res\drawable\ic_comments_colour.png"
       inkscape:export-xdpi="21.600002"
       inkscape:export-ydpi="21.600002" />
    <path
       style="fill:none;stroke:#000000;stroke-width:0.66538471px;stroke-linecap:butt;stroke-linejoin:miter;stroke-opacity:1"
       d="M 308.36488,771.96307 C 254.51023,745.80659 252.8703,744.56896 252.8703,744.56896"
       id="path3149-4-1-8"
       inkscape:connector-curvature="0"
       sodipodi:nodetypes="cc"
       inkscape:export-filename="d:\Users\Martin.Dickschiff-Win7\Programming\Java\TT_DownLoaderAND\res\drawable\ic_comments_colour.png"
       inkscape:export-xdpi="21.600002"
       inkscape:export-ydpi="21.600002" />
    <path
       style="fill:none;stroke:#000000;stroke-width:1.12545526px;stroke-linecap:butt;stroke-linejoin:miter;stroke-opacity:1"
       d="m 192.59054,585.58083 0.37559,185.93465"
       id="path3553"
       inkscape:connector-curvature="0"
       inkscape:export-filename="d:\Users\Martin.Dickschiff-Win7\Programming\Java\TT_DownLoaderAND\res\drawable\ic_comments_colour.png"
       inkscape:export-xdpi="21.600002"
       inkscape:export-ydpi="21.600002" />
    <path
       style="fill:none;stroke:#000000;stroke-width:1.12545526px;stroke-linecap:butt;stroke-linejoin:miter;stroke-opacity:1"
       d="m 312.42195,585.58083 0.3756,185.93465"
       id="path3553-5"
       inkscape:connector-curvature="0"
       inkscape:export-filename="d:\Users\Martin.Dickschiff-Win7\Programming\Java\TT_DownLoaderAND\res\drawable\ic_comments_colour.png"
       inkscape:export-xdpi="21.600002"
       inkscape:export-ydpi="21.600002" />
    <rect
       style="fill:#ff8534;fill-opacity:1;stroke-width:1.5;stroke-linejoin:round;stroke-miterlimit:4;stroke-dasharray:none"
       id="rect3573"
       width="93.297668"
       height="238.72498"
       x="-464.58575"
       y="332.89584"
       transform="matrix(-1,0,-0.23883231,0.97106083,0,0)"
       inkscape:export-filename="d:\Users\Martin.Dickschiff-Win7\Programming\Java\TT_DownLoaderAND\res\drawable\ic_comments_colour.png"
       inkscape:export-xdpi="21.600002"
       inkscape:export-ydpi="21.600002" />
    <rect
       style="fill:#ff8534;fill-opacity:1;stroke-width:1.5;stroke-linejoin:round;stroke-miterlimit:4;stroke-dasharray:none"
       id="rect3573-0"
       width="93.297668"
       height="205.67458"
       x="-439.22324"
       y="251.40916"
       transform="matrix(-1,0,-0.27721084,0.96080911,0,0)"
       inkscape:export-filename="d:\Users\Martin.Dickschiff-Win7\Programming\Java\TT_DownLoaderAND\res\drawable\ic_comments_colour.png"
       inkscape:export-xdpi="21.600002"
       inkscape:export-ydpi="21.600002" />
    <path
       style="fill:none;stroke:#ff0000;stroke-width:10;stroke-linecap:butt;stroke-linejoin:round;stroke-miterlimit:4;stroke-opacity:1;stroke-dasharray:39.99999927, 9.99999982;stroke-dashoffset:0"
       d="M 382.95302,770.3687 319.15976,523.98181 c -38.27596,7.76021 -96.93782,55.10742 -72.40527,-30.6104 l 40.18984,-37.94563 33.81073,-149.31145 58.58362,-125.74575"
       id="path3597"
       inkscape:connector-curvature="0"
       sodipodi:nodetypes="cccccc"
       inkscape:export-filename="d:\Users\Martin.Dickschiff-Win7\Programming\Java\TT_DownLoaderAND\res\drawable\ic_comments_colour.png"
       inkscape:export-xdpi="21.600002"
       inkscape:export-ydpi="21.600002" />
    <path
       inkscape:connector-curvature="0"
       d="m 522.7364,252.31851 -261.26754,0 c -11.13355,0 -20.15882,7.00077 -20.15882,15.64104 l 0,77.88324 c 0,8.63535 9.02527,15.64021 20.15882,15.64021 l 92.11889,0 c 1.02792,7.98103 -18.69932,23.7887 -48.87024,54.58551 39.87371,-13.89611 70.35019,-42.13691 77.99218,-54.58551 l 140.03197,0 c 11.13335,0 20.16451,-7.00486 20.16451,-15.64021 l 0,-77.88324 c 0,-8.64027 -9.03643,-15.64104 -20.16977,-15.64104 z"
       id="path3117"
       style="opacity:0.66000001;fill:#ffffff;fill-opacity:1;fill-rule:nonzero;stroke:#000000;stroke-width:1.25;stroke-linecap:butt;stroke-linejoin:miter;stroke-miterlimit:4;stroke-opacity:1"
       inkscape:export-filename="d:\Users\Martin.Dickschiff-Win7\Programming\Java\TT_DownLoaderAND\res\drawable\ic_comments_colour.png"
       inkscape:export-xdpi="21.600002"
       inkscape:export-ydpi="21.600002"
       sodipodi:nodetypes="ssssscccssss" />
    <text
       xml:space="preserve"
       style="font-size:107.3112793px;font-style:normal;font-weight:normal;line-height:125%;letter-spacing:0px;word-spacing:0px;fill:#000000;fill-opacity:1;stroke:none;font-family:Sans"
       x="252.50938"
       y="354.65692"
       id="text4631"
       sodipodi:linespacing="125%"
       transform="scale(1.0371468,0.96418367)"
       inkscape:export-xdpi="21.600002"
       inkscape:export-ydpi="21.600002"
       inkscape:export-filename="d:\Users\Martin.Dickschiff-Win7\Programming\Java\TT_DownLoaderAND\res\drawable\ic_comments_colour.png"><tspan
         sodipodi:role="line"
         id="tspan4633"
         x="252.50938"
         y="354.65692">Bla!?</tspan></text>
    <path
       inkscape:connector-curvature="0"
       d="m 621.69041,415.79267 -261.26754,0 c -11.13355,0 -20.15882,7.00077 -20.15882,15.64103 l 0,77.88326 c 0,8.63535 9.02527,15.64021 20.15882,15.64021 l 92.11889,0 c 1.02792,7.98102 -70.62861,59.50298 -100.79953,90.29979 38.35848,-20.08328 122.27948,-77.85119 129.92147,-90.29979 l 140.03197,0 c 11.13335,0 20.16451,-7.00486 20.16451,-15.64021 l 0,-77.88326 c 0,-8.64026 -9.03643,-15.64103 -20.16977,-15.64103 z"
       id="path3117-1"
       style="opacity:0.66000001;fill:#ffffff;fill-opacity:1;fill-rule:nonzero;stroke:#000000;stroke-width:1.25;stroke-linecap:butt;stroke-linejoin:miter;stroke-miterlimit:4;stroke-opacity:1;display:inline"
       inkscape:export-filename="d:\Users\Martin.Dickschiff-Win7\Programming\Java\TT_DownLoaderAND\res\drawable\ic_comments_colour.png"
       inkscape:export-xdpi="21.600002"
       inkscape:export-ydpi="21.600002"
       sodipodi:nodetypes="ssssscccssss" />
    <text
       xml:space="preserve"
       style="font-size:107.3112793px;font-style:normal;font-weight:normal;line-height:125%;letter-spacing:0px;word-spacing:0px;fill:#000000;fill-opacity:1;stroke:none;display:inline;font-family:Sans"
       x="353.49823"
       y="523.99292"
       id="text4631-8"
       sodipodi:linespacing="125%"
       transform="scale(1.0371468,0.96418367)"
       inkscape:export-xdpi="21.600002"
       inkscape:export-ydpi="21.600002"
       inkscape:export-filename="d:\Users\Martin.Dickschiff-Win7\Programming\Java\TT_DownLoaderAND\res\drawable\ic_comments_colour.png"><tspan
         sodipodi:role="line"
         id="tspan4633-4"
         x="353.49823"
         y="523.99292">Blub!</tspan></text>
  </g>
</svg>
