<?xml version="1.0" encoding="UTF-8" standalone="no"?>
<!-- Created with Inkscape (http://www.inkscape.org/) -->

<svg xmlns:dc="http://purl.org/dc/elements/1.1/" xmlns:cc="http://creativecommons.org/ns#" xmlns:rdf="http://www.w3.org/1999/02/22-rdf-syntax-ns#"
    xmlns="http://www.w3.org/2000/svg" xmlns:xlink="http://www.w3.org/1999/xlink" xmlns:sodipodi="http://sodipodi.sourceforge.net/DTD/sodipodi-0.dtd"
    xmlns:inkscape="http://www.inkscape.org/namespaces/inkscape" width="210mm" height="297mm" id="svg2"
    version="1.1" inkscape:version="0.48.4 r9939" sodipodi:docname="ic_route.svg"
    inkscape:export-filename="d:\Users\Martin.Dickschiff-Win7\Programming\Java\TT_DownLoaderAND\res\drawable\ic_route.png"
    inkscape:export-xdpi="21.600048" inkscape:export-ydpi="21.600048">
  <defs
     id="defs4">
    <inkscape:path-effect
       effect="spiro"
       id="path-effect3145"
       is_visible="true" />
    <inkscape:path-effect
       effect="spiro"
       id="path-effect3141"
       is_visible="true" />
    <inkscape:path-effect
       effect="spiro"
       id="path-effect3133"
       is_visible="true" />
    <inkscape:path-effect
       effect="spiro"
       id="path-effect3129"
       is_visible="true" />
    <inkscape:path-effect
       effect="skeletal"
       id="path-effect3123"
       is_visible="true"
       pattern="M 0,5 10,10 10,0 z"
       copytype="single_stretched"
       prop_scale="1"
       scale_y_rel="false"
       spacing="0"
       normal_offset="0"
       tang_offset="0"
       prop_units="false"
       vertical_pattern="false"
       fuse_tolerance="0" />
    <inkscape:path-effect
       effect="spiro"
       id="path-effect3121"
       is_visible="true" />
    <inkscape:path-effect
       effect="skeletal"
       id="path-effect3114"
       is_visible="true"
       pattern="M 0,5 10,10 10,0 z"
       copytype="single_stretched"
       prop_scale="1"
       scale_y_rel="false"
       spacing="0"
       normal_offset="0"
       tang_offset="0"
       prop_units="false"
       vertical_pattern="false"
       fuse_tolerance="0" />
    <inkscape:path-effect
       effect="spiro"
       id="path-effect3112"
       is_visible="true" />
    <inkscape:path-effect
       effect="skeletal"
       id="path-effect3108"
       is_visible="true"
       pattern="M 0,5 10,10 10,0 z"
       copytype="single_stretched"
       prop_scale="1"
       scale_y_rel="false"
       spacing="0"
       normal_offset="0"
       tang_offset="0"
       prop_units="false"
       vertical_pattern="false"
       fuse_tolerance="0" />
    <inkscape:path-effect
       effect="spiro"
       id="path-effect3106"
       is_visible="true" />
    <inkscape:path-effect
       effect="spiro"
       id="path-effect3102"
       is_visible="true" />
    <inkscape:path-effect
       effect="spiro"
       id="path-effect3094"
       is_visible="true" />
    <linearGradient
       id="linearGradient3066">
      <stop
         style="stop-color:#ff9955;stop-opacity:1"
         offset="0"
         id="stop3068" />
      <stop
         style="stop-color:#ff9955;stop-opacity:0;"
         offset="1"
         id="stop3070" />
    </linearGradient>
    <radialGradient
       inkscape:collect="always"
       xlink:href="#linearGradient3066"
       id="radialGradient3117"
       gradientUnits="userSpaceOnUse"
       gradientTransform="matrix(7.343176,0.11570645,-0.1995883,11.454649,-964.67365,-4446.9407)"
       cx="194.08092"
       cy="445.59827"
       fx="194.08092"
       fy="445.59827"
       r="113.82048" />
    <radialGradient
       inkscape:collect="always"
       xlink:href="#linearGradient3066-7"
       id="radialGradient3074"
       cx="207.64952"
       cy="409.30176"
       fx="207.64952"
       fy="409.30176"
       r="113.82048"
       gradientTransform="matrix(0.99986995,-0.00993534,0.05020437,1.9176277,-19.599823,-356.68765)"
       gradientUnits="userSpaceOnUse" />
    <linearGradient
       inkscape:collect="always"
       id="linearGradient3066-7">
      <stop
         style="stop-color:#ff9955;stop-opacity:1"
         offset="0"
         id="stop3068-9" />
      <stop
         style="stop-color:#ff9955;stop-opacity:0;"
         offset="1"
         id="stop3070-0" />
    </linearGradient>
    <radialGradient
       r="113.82048"
       fy="396.78036"
       fx="248.25888"
       cy="396.78036"
       cx="248.25888"
       gradientTransform="matrix(0.97175671,-0.46147216,1.0856755,2.7754749,-431.6821,-594.89687)"
       gradientUnits="userSpaceOnUse"
       id="radialGradient4404"
       xlink:href="#linearGradient3066-7"
       inkscape:collect="always" />
  </defs>
  <sodipodi:namedview
     id="base"
     pagecolor="#ffffff"
     bordercolor="#666666"
     borderopacity="1.0"
     inkscape:pageopacity="0.0"
     inkscape:pageshadow="2"
     inkscape:zoom="0.49497475"
     inkscape:cx="548.14994"
     inkscape:cy="335.00178"
     inkscape:document-units="px"
     inkscape:current-layer="layer1"
     showgrid="false"
     inkscape:window-width="1280"
     inkscape:window-height="972"
     inkscape:window-x="1912"
     inkscape:window-y="-8"
     inkscape:window-maximized="1" />
  <metadata
     id="metadata7">
    <rdf:RDF>
      <cc:Work
         rdf:about="">
        <dc:format>image/svg+xml</dc:format>
        <dc:mType
           rdf:resource="http://purl.org/dc/dcmitype/StillImage" />
        <dc:title></dc:title>
      </cc:Work>
    </rdf:RDF>
  </metadata>
  <g
     inkscape:label="Ebene 1"
     inkscape:groupmode="layer"
     id="layer1"
     style="display:inline">
    <path
       sodipodi:mType="star"
       style="fill:url(#radialGradient4404);fill-opacity:1;stroke-width:1.5;stroke-linejoin:round;stroke-miterlimit:4;stroke-dasharray:none"
       id="path2985-0"
       sodipodi:sides="3"
       sodipodi:cx="205.71429"
       sodipodi:cy="423.79074"
       sodipodi:r1="131.42857"
       sodipodi:r2="65.714287"
       sodipodi:arg1="-1.5707963"
       sodipodi:arg2="-0.52359878"
       inkscape:flatsided="true"
       inkscape:rounded="0"
       inkscape:randomized="0"
       d="m 205.7143,292.36217 113.82048,197.14286 -227.640971,-10e-6 z"
       inkscape:transform-center-y="-33.527118"
       transform="matrix(1.2114534,0.09816472,-0.29276266,1.1904178,400.70044,-171.2222)"
       inkscape:transform-center-x="19.238708" />
    <path
       style="fill:url(#radialGradient3117);fill-opacity:1;stroke-width:1.5;stroke-linejoin:round;stroke-miterlimit:4"
       inkscape:transform-center-x="1.4048681e-005"
       inkscape:transform-center-y="-94.416358"
       d="M 316.26882,197.82679 C 702.2734,50.113465 676.04271,772.41776 676.04271,772.41776 l -599.623165,-3e-5 c 0,0 4.758665,-484.62824 239.849275,-574.59094 z"
       id="path2985"
       inkscape:connector-curvature="0"
       sodipodi:nodetypes="sccs" />
    <path
       style="fill:#000000;fill-rule:evenodd;stroke:none"
       d="m 419.76712,303.78892 c 2.48557,13.14247 3.64789,26.52255 3.46855,39.87247 -0.13023,9.65283 -0.95963,19.33976 -0.26038,29.05162 0,0 0,10e-6 0,2e-5 1.39432,19.14973 8.70646,37.45871 18.05704,54.19359 0,0 0,0 0,1e-5 9.34012,16.73692 20.69185,32.19253 30.98784,48.16535 6.25419,9.70527 12.18408,19.70118 18.94383,29.2435 10e-6,1e-5 2e-5,2e-5 2e-5,2e-5 2.40143,3.40898 5.01909,6.85381 8.34599,9.76593 3.33086,2.93546 7.50677,5.18246 12.17808,5.76383 1.73527,0.21569 3.17217,0.14789 4.15422,0.51084 0.48351,0.17192 0.89565,0.36314 1.12341,0.61172 0,0 0,0 0,0 0.20851,0.2349 0.38167,0.4856 0.35875,0.62969 0.0566,0.12471 -0.0548,0.44092 -0.17495,0.90298 0,10e-6 0,2e-5 0,2e-5 -0.15445,0.46204 -0.43484,1.06984 -0.69695,1.87739 -0.29697,0.81015 -0.43929,1.84828 -0.26822,3.05381 0.10224,0.60569 0.34463,1.21887 0.73473,1.80589 0.39496,0.59374 0.96527,1.08779 1.68838,1.43671 0.72703,0.30587 1.39858,0.42496 1.97319,0.39411 0.56572,-0.0192 1.01801,-0.0862 1.35646,-0.15512 0.3399,-0.0565 0.56934,-0.10646 0.69152,-0.10442 10e-6,0 10e-6,0 10e-6,0 0.11643,0.0144 0.13648,-0.003 0.0288,-0.0106 -0.10669,-0.0442 -0.15934,-0.0651 -0.18518,-0.10112 -0.021,-0.0316 -0.0241,-0.0145 -0.009,0.0177 0.0621,0.0624 0.003,0.32659 -0.0524,0.69099 -0.15602,0.75537 -0.95073,1.94898 -1.40921,3.90041 -0.26736,1.4303 -0.17154,2.80877 0.17317,4.03408 10e-6,10e-6 10e-6,3e-5 10e-6,4e-5 0.33469,1.2182 0.81382,2.29105 1.32218,3.23533 0.97058,1.90673 2.01194,3.38067 2.26186,4.7129 0.34773,1.2256 0.17801,2.80192 0.0747,4.6207 -0.14153,1.85722 -0.235,3.7325 -0.25193,5.62353 -0.0656,7.24982 -0.13116,14.49964 -0.19674,21.74946 0,0 0,10e-6 0,10e-6 -0.0141,2.00747 0.14335,3.98208 0.40846,5.90781 0.11214,0.89959 0.22079,1.65575 0.18515,2.26298 -0.0638,0.58269 -0.11022,1.03271 -0.27264,1.18204 0,0 0,10e-6 0,10e-6 -0.0557,0.20844 -0.51049,0.50034 -1.1276,1.02386 -0.67336,0.47068 -1.57965,1.15761 -2.51868,2.24945 0,2e-5 -10e-6,3e-5 -2e-5,4e-5 -1.32016,1.83145 -1.84821,3.54305 -2.17976,4.73441 -0.20655,0.57562 -0.36891,1.03426 -0.562,1.32435 -0.19708,0.27283 -0.33288,0.47113 -0.4175,0.47861 -0.0472,0.055 -0.24828,0.0855 -0.51732,0.13355 -0.28102,0.0421 -0.67579,-0.001 -1.16645,-0.0614 -0.98218,-0.15209 -2.36422,-0.5441 -4.21759,-0.64274 0,0 -1e-5,0 -2e-5,0 -2.81247,-0.0758 -5.53491,0.94677 -7.60819,2.87021 -1e-5,0 -1e-5,10e-6 -2e-5,10e-6 -1.7535,1.47102 -2.65922,3.65251 -2.45962,6.01032 -1.90751,0.68316 -3.7994,1.35426 -5.67566,2.01331 -1.3914,-0.45056 -2.84938,-0.5025 -4.2436,-0.15231 -2.55974,0.60447 -4.78014,1.91299 -6.49141,3.62567 -1e-5,10e-6 -1e-5,10e-6 -2e-5,10e-6 -1.7018,1.69518 -2.96992,3.63452 -3.88732,5.61191 -1.82435,3.9436 -2.6025,7.80146 -3.74375,11.0043 -2.1505,6.14513 -6.24257,11.66572 -10.90591,16.7582 -1.46337,1.57353 -3.10473,3.23685 -4.67849,5.20633 -1.59576,1.96345 -3.02118,4.31265 -3.91982,7.07725 -0.88705,3.02899 -1.00572,5.97423 -0.81169,8.6213 0,10e-6 0,2e-5 0,3e-5 0.1527,2.64049 0.48489,5.00956 0.51396,7.12496 0.0684,4.21422 -0.948,9.28378 -0.0683,15.11452 0.86774,4.60763 2.709,8.35504 3.93311,11.63898 1.03262,2.81904 1.82279,5.99877 2.96528,9.35324 1.10751,3.37705 2.71381,6.90459 5.27454,10.11649 2.53076,2.99605 5.23683,4.99896 7.17214,6.88684 0.94969,0.95741 1.76063,1.85675 2.27534,2.75753 0.49714,0.89261 0.85438,1.74892 0.87042,2.4609 0.1679,0.98988 -0.48838,3.18262 -0.2575,6.58866 0.0921,1.7483 0.77544,3.68067 2.18087,5.54741 0.73494,0.91827 1.7106,1.6965 2.90273,2.28045 2e-5,10e-6 4e-5,2e-5 6e-5,3e-5 1.20612,0.58833 2.58904,0.84225 4.0762,0.72031 1.80751,-0.29067 2.59732,-0.62192 2.44616,-0.57126 -10e-6,10e-6 -10e-6,10e-6 -10e-6,10e-6 -0.0836,0.0684 -0.40104,0.0417 -0.98383,-0.0277 -0.65288,-0.0684 -1.29046,-0.52379 -2.01819,-1.37608 -0.47235,-0.86621 -0.69438,-1.42486 -0.61643,-1.74419 0.0212,-0.26484 -0.009,-0.25632 -0.0368,0.0262 -0.14165,0.79989 -0.23033,1.67141 -0.24126,2.6092 -0.0656,7.24983 -0.13115,14.49965 -0.19673,21.74948 l 10,0 c -0.0656,-7.24983 -0.13116,-14.49965 -0.19673,-21.74948 -0.0109,-0.29137 0.0245,-0.64695 0.0817,-1.06002 0.0716,-0.32432 0.13712,-0.92739 0.14344,-1.80702 0.063,-0.93402 -0.29486,-2.12149 -1.11959,-3.49157 -1.11798,-1.4103 -2.38844,-2.22662 -3.70559,-2.44478 -1.24728,-0.21913 -2.26078,-0.19937 -3.0118,0.005 -2e-5,0 -4e-5,10e-6 -6e-5,10e-6 -1.48607,0.32334 -1.95333,0.6174 -1.5013,0.46447 0.39771,-0.0112 0.66636,0.0265 0.88066,0.15063 0,0 10e-6,0 10e-6,0 0.20024,0.11972 0.30495,0.19059 0.34127,0.26547 0.008,0.18017 0.005,-0.0731 -0.1269,-0.50335 0,0 0,0 0,-10e-6 -0.21741,-0.9521 0.40049,-3.15468 0.14436,-6.52536 -0.28913,-2.42636 -1.11716,-4.58297 -2.27724,-6.37288 -1.1426,-1.78189 -2.45259,-3.25292 -3.77594,-4.48107 -2.61082,-2.48327 -5.11572,-4.18725 -6.61767,-6.04008 -10e-6,0 -10e-6,0 -10e-6,0 -1.65978,-1.86278 -2.81334,-4.46491 -3.89036,-7.31626 -1.0421,-2.87409 -1.91272,-6.10112 -3.19566,-9.46315 -1.47752,-3.92772 -3.24306,-7.13706 -3.72979,-10.11048 -0.82378,-3.70393 0.14391,-8.41741 -0.0683,-13.88478 -0.11179,-2.74538 -0.49202,-5.20201 -0.65977,-7.41377 0,-10e-6 0,-2e-5 0,-3e-5 -0.12639,-2.20503 -0.16126,-4.21457 0.36204,-5.83923 0.39931,-1.51816 1.35574,-3.05493 2.51177,-4.62057 1.17809,-1.55971 2.66899,-3.10723 4.21576,-4.84533 5.02674,-5.56815 9.51399,-12.02452 12.08283,-19.49094 1.32276,-3.90386 1.93878,-7.54016 3.28613,-10.41689 0.6684,-1.43269 1.43959,-2.72645 2.40759,-3.67996 10e-6,-1e-5 10e-6,-1e-5 2e-5,-2e-5 0.95822,-0.9357 2.06682,-1.67537 3.17252,-1.91038 1.11665,-0.22486 2.29987,-0.2768 3.41934,-0.15231 3.23235,-1.75755 6.44908,-3.50305 9.65018,-5.2365 10e-6,0 10e-6,0 2e-5,-10e-6 0.32126,-1.54023 1.13572,-3.18863 2.21519,-4.39787 10e-6,0 10e-6,0 10e-6,-10e-6 0.75969,-0.75681 1.95647,-1.23976 3.04279,-1.22126 0.75862,-0.0355 1.92003,0.31549 3.52665,0.51643 0.80373,0.11608 1.72449,0.15173 2.74077,0.0401 1.02818,-0.10569 2.10985,-0.46895 3.15704,-1.12714 1.07902,-0.75085 1.85953,-1.64878 2.35794,-2.5782 0.50244,-0.91224 0.82648,-1.76468 1.04971,-2.50992 0.52795,-1.45026 0.6878,-2.5308 1.096,-2.87413 0,0 0,0 1e-5,0 0.16037,-0.29151 0.71009,-0.65074 1.43903,-1.25519 0.78513,-0.55158 1.72578,-1.41363 2.57756,-2.72127 10e-6,-2e-5 2e-5,-3e-5 3e-5,-4e-5 0.78137,-1.4274 1.08825,-2.84862 1.06286,-4.10314 0.003,-1.23017 -0.1423,-2.30376 -0.29421,-3.2229 -0.26275,-1.70993 -0.43356,-3.40431 -0.44768,-5.07061 -0.0656,-7.24982 -0.13116,-14.49965 -0.19674,-21.74947 -0.0169,-1.74422 0.0397,-3.50319 0.14154,-5.27307 0.14007,-1.80908 0.22617,-3.93307 -0.3188,-6.2322 -0.71065,-2.46045 -1.92889,-4.29196 -2.80956,-5.83196 -0.41727,-0.77908 -0.77229,-1.49184 -0.95095,-2.16129 -0.1686,-0.66223 -0.25686,-1.28518 -0.14518,-1.77388 1e-5,-10e-6 1e-5,-10e-6 1e-5,-2e-5 0.0656,-0.7017 0.82843,-1.8573 1.29772,-3.73304 0.25751,-0.9509 0.26662,-2.09159 -0.0929,-3.31373 -1e-5,-2e-5 -1e-5,-3e-5 -2e-5,-5e-5 -0.19601,-0.61006 -0.53205,-1.19836 -1.0063,-1.7315 -0.47905,-0.53755 -1.10703,-0.95425 -1.85467,-1.21331 -0.722,-0.21363 -1.36243,-0.26838 -1.8922,-0.20701 -2e-5,0 -3e-5,0 -5e-5,0 -0.52406,0.049 -0.93162,0.12819 -1.22837,0.19223 0,0 -10e-6,0 -10e-6,0 -0.29819,0.0516 -0.48728,0.0971 -0.56938,0.0909 -0.0732,-0.0178 -0.0606,0.0112 0.077,0.0479 0.12734,0.0768 0.18962,0.12078 0.21182,0.17599 0.0173,0.0485 0.0193,0.0367 4e-4,-0.001 0,0 0,0 0,0 -0.0713,-0.0818 0.0158,-0.3779 0.10611,-0.81916 0.12519,-0.44396 0.3877,-1.03443 0.64059,-1.81753 0.28721,-0.78297 0.44751,-1.788 0.32407,-2.96083 -0.23411,-1.37753 -0.89577,-2.52564 -1.81782,-3.33081 -0.90309,-0.79175 -1.90381,-1.3015 -2.8914,-1.57336 -10e-6,0 -10e-6,0 -2e-5,0 -1.96035,-0.52466 -3.65959,-0.4819 -4.98022,-0.5934 -3.5402,-0.29783 -6.98633,-2.1385 -9.93627,-4.56525 -2.95503,-2.45106 -5.4193,-5.6173 -7.85426,-8.90426 0,0 0,-10e-6 0,-10e-6 -6.80878,-9.2432 -12.89501,-19.09681 -19.37077,-28.75514 -10.65656,-15.8982 -22.23719,-31.06831 -31.77659,-47.47253 0,-1e-5 -10e-6,-2e-5 -10e-6,-3e-5 -9.52789,-16.40444 -17.09786,-34.29961 -18.79646,-53.16363 -0.86926,-9.56606 -0.2147,-19.25839 -0.26038,-28.947 -0.0624,-13.39962 -1.47153,-26.78029 -4.19443,-39.87565 z"
       id="path3104"
       inkscape:path-effect="#path-effect3106;#path-effect3108"
       inkscape:original-d="m 419.76712,303.78892 c 4.88129,27.70881 3.83149,14.39966 3.83149,39.87406 0,9.66643 -1.67972,19.46439 0,28.99931 6.62578,37.61162 28.94003,69.90729 49.80897,101.49758 6.38578,9.66644 11.44396,20.24225 19.1573,28.99932 5.23528,5.94365 12.50278,10.00266 19.15731,14.49965 2.32387,1.57042 6.07882,1.37683 7.66292,3.62491 1.41689,2.01074 -1.14232,5.08834 0,7.24983 0.57118,1.08074 3.26031,-1.08074 3.83147,0 1.14232,2.16149 -0.50094,4.88015 0,7.24982 0.79205,3.74679 3.16751,7.10574 3.83145,10.87475 0.62991,3.57559 0,7.24982 0,10.87475 0,7.24981 0,14.49965 0,21.74947 0,3.62492 0.92926,7.35806 0,10.87474 -0.43806,1.65778 -2.82958,2.2031 -3.83145,3.62491 -1.58411,2.24807 -1.4553,5.75112 -3.83147,7.24983 -2.12531,1.34049 -5.37827,-1.08074 -7.66292,0 -3.23097,1.52841 -4.77305,5.19927 -7.66291,7.24984 -2.55431,1.2083 -5.10863,2.4166 -7.66293,3.62491 -1.27715,0 -2.68915,-0.54038 -3.83147,0 -5.25528,2.48599 -11.29272,17.78114 -11.49438,18.12457 -3.61658,6.15892 -7.54746,12.14993 -11.49437,18.12457 -2.44057,3.69439 -6.20674,6.74169 -7.66292,10.87474 -1.6155,4.58519 0,9.66643 0,14.49966 0,4.83321 -0.72248,9.715 0,14.49965 0.57114,3.78259 2.55431,7.24983 3.83145,10.87473 2.07695,5.89493 3.90452,12.79085 7.66292,18.12457 3.54219,5.02686 8.32616,9.25414 11.49438,14.49965 2.00376,3.31756 1.59119,7.69548 3.83148,10.87474 0.70842,1.00537 2.92835,-0.85439 3.83144,0 0.90309,0.8544 0,2.41661 0,3.62492 0,7.24983 0,14.49966 0,21.74948"
       inkscape:connector-curvature="0" />
    <path
       style="fill:none;stroke:#000000;stroke-width:0.66538477px;stroke-linecap:butt;stroke-linejoin:miter;stroke-opacity:1"
       d="m 187.41595,758.61496 c 50.25189,-26.89854 57.10442,-30.06309 57.10442,-30.06309"
       id="path3149"
       inkscape:connector-curvature="0" />
    <path
       style="fill:none;stroke:#000000;stroke-width:0.66538477px;stroke-linecap:butt;stroke-linejoin:miter;stroke-opacity:1"
       d="m 187.41595,742.84859 c 50.25189,-26.89857 57.10442,-30.06309 57.10442,-30.06309"
       id="path3149-4"
       inkscape:connector-curvature="0" />
    <path
       style="fill:none;stroke:#000000;stroke-width:0.66538477px;stroke-linecap:butt;stroke-linejoin:miter;stroke-opacity:1"
       d="m 187.41595,601.23435 c 50.25189,-26.89854 57.10442,-30.06306 57.10442,-30.06306"
       id="path3149-4-5"
       inkscape:connector-curvature="0" />
    <path
       style="fill:none;stroke:#000000;stroke-width:0.66538477px;stroke-linecap:butt;stroke-linejoin:miter;stroke-opacity:1"
       d="m 187.41595,616.9441 c 50.25189,-26.89855 57.10442,-30.06308 57.10442,-30.06308"
       id="path3149-4-5-3"
       inkscape:connector-curvature="0" />
    <path
       style="fill:none;stroke:#000000;stroke-width:0.66538477px;stroke-linecap:butt;stroke-linejoin:miter;stroke-opacity:1"
       d="m 187.41595,632.65384 c 50.25189,-26.89855 57.10442,-30.06308 57.10442,-30.06308"
       id="path3149-4-5-3-0"
       inkscape:connector-curvature="0" />
    <path
       style="fill:none;stroke:#000000;stroke-width:0.66538477px;stroke-linecap:butt;stroke-linejoin:miter;stroke-opacity:1"
       d="m 187.41595,648.42023 c 50.25189,-26.89856 57.10442,-30.0631 57.10442,-30.0631"
       id="path3149-4-5-3-0-8"
       inkscape:connector-curvature="0" />
    <path
       style="fill:none;stroke:#000000;stroke-width:0.66538477px;stroke-linecap:butt;stroke-linejoin:miter;stroke-opacity:1"
       d="m 187.41595,664.12997 c 50.25189,-26.89854 57.10442,-30.06308 57.10442,-30.06308"
       id="path3149-4-5-3-0-8-9"
       inkscape:connector-curvature="0" />
    <path
       style="fill:none;stroke:#000000;stroke-width:0.66538477px;stroke-linecap:butt;stroke-linejoin:miter;stroke-opacity:1"
       d="m 187.41595,679.86803 c 50.25189,-26.89855 57.10442,-30.06308 57.10442,-30.06308"
       id="path3149-4-5-3-0-8-9-1"
       inkscape:connector-curvature="0" />
    <path
       style="fill:none;stroke:#000000;stroke-width:0.66538477px;stroke-linecap:butt;stroke-linejoin:miter;stroke-opacity:1"
       d="m 187.41595,695.57778 c 50.25189,-26.89855 57.10442,-30.06309 57.10442,-30.06309"
       id="path3149-4-5-3-0-8-9-1-3"
       inkscape:connector-curvature="0" />
    <path
       style="fill:none;stroke:#000000;stroke-width:0.66538477px;stroke-linecap:butt;stroke-linejoin:miter;stroke-opacity:1"
       d="m 187.41595,711.31583 c 50.25189,-26.89854 57.10442,-30.06307 57.10442,-30.06307"
       id="path3149-4-5-3-0-8-9-1-3-4"
       inkscape:connector-curvature="0" />
    <path
       style="fill:none;stroke:#000000;stroke-width:0.66538477px;stroke-linecap:butt;stroke-linejoin:miter;stroke-opacity:1"
       d="m 187.41595,727.11052 c 50.25189,-26.89856 57.10442,-30.06309 57.10442,-30.06309"
       id="path3149-4-5-3-0-8-9-1-3-4-7"
       inkscape:connector-curvature="0" />
    <path
       style="fill:none;stroke:#000000;stroke-width:0.66538477px;stroke-linecap:butt;stroke-linejoin:miter;stroke-opacity:1"
       d="m 187.41595,585.46798 c 50.25189,-26.89855 57.10442,-30.06308 57.10442,-30.06308"
       id="path3149-4-5-3-0-8-9-1-3-4-7-4"
       inkscape:connector-curvature="0"
       inkscape:transform-center-x="-6.0612185"
       inkscape:transform-center-y="91.959167" />
    <path
       style="fill:none;stroke:#000000;stroke-width:0.66538477px;stroke-linecap:butt;stroke-linejoin:miter;stroke-opacity:1"
       d="M 301.08763,758.57229 C 250.83573,731.67374 243.98319,728.5092 243.98319,728.5092"
       id="path3149-48"
       inkscape:connector-curvature="0" />
    <path
       style="fill:none;stroke:#000000;stroke-width:0.66538477px;stroke-linecap:butt;stroke-linejoin:miter;stroke-opacity:1"
       d="m 301.08763,742.83423 c -50.2519,-26.89856 -57.10444,-30.06309 -57.10444,-30.06309"
       id="path3149-4-2"
       inkscape:connector-curvature="0" />
    <path
       style="fill:none;stroke:#000000;stroke-width:0.66538477px;stroke-linecap:butt;stroke-linejoin:miter;stroke-opacity:1"
       d="m 301.08763,601.19169 c -50.2519,-26.89856 -57.10444,-30.06308 -57.10444,-30.06308"
       id="path3149-4-5-36"
       inkscape:connector-curvature="0" />
    <path
       style="fill:none;stroke:#000000;stroke-width:0.66538477px;stroke-linecap:butt;stroke-linejoin:miter;stroke-opacity:1"
       d="m 301.08763,616.92974 c -50.2519,-26.89855 -57.10444,-30.06309 -57.10444,-30.06309"
       id="path3149-4-5-3-3"
       inkscape:connector-curvature="0" />
    <path
       style="fill:none;stroke:#000000;stroke-width:0.66538477px;stroke-linecap:butt;stroke-linejoin:miter;stroke-opacity:1"
       d="m 301.08763,632.66779 c -50.2519,-26.89855 -57.10444,-30.06307 -57.10444,-30.06307"
       id="path3149-4-5-3-0-0"
       inkscape:connector-curvature="0" />
    <path
       style="fill:none;stroke:#000000;stroke-width:0.66538477px;stroke-linecap:butt;stroke-linejoin:miter;stroke-opacity:1"
       d="m 301.08763,648.40586 c -50.2519,-26.89855 -57.10444,-30.06309 -57.10444,-30.06309"
       id="path3149-4-5-3-0-8-3"
       inkscape:connector-curvature="0" />
    <path
       style="fill:none;stroke:#000000;stroke-width:0.66538477px;stroke-linecap:butt;stroke-linejoin:miter;stroke-opacity:1"
       d="m 301.08763,664.14393 c -50.2519,-26.89854 -57.10444,-30.06309 -57.10444,-30.06309"
       id="path3149-4-5-3-0-8-9-5"
       inkscape:connector-curvature="0" />
    <path
       style="fill:none;stroke:#000000;stroke-width:0.66538477px;stroke-linecap:butt;stroke-linejoin:miter;stroke-opacity:1"
       d="M 301.08763,679.88198 C 250.83573,652.98343 243.98319,649.8189 243.98319,649.8189"
       id="path3149-4-5-3-0-8-9-1-2"
       inkscape:connector-curvature="0" />
    <path
       style="fill:none;stroke:#000000;stroke-width:0.66538477px;stroke-linecap:butt;stroke-linejoin:miter;stroke-opacity:1"
       d="m 301.08763,695.62003 c -50.2519,-26.89854 -57.10444,-30.06308 -57.10444,-30.06308"
       id="path3149-4-5-3-0-8-9-1-3-8"
       inkscape:connector-curvature="0" />
    <path
       style="fill:none;stroke:#000000;stroke-width:0.66538477px;stroke-linecap:butt;stroke-linejoin:miter;stroke-opacity:1"
       d="m 301.08763,711.3581 c -50.2519,-26.89854 -57.10444,-30.06306 -57.10444,-30.06306"
       id="path3149-4-5-3-0-8-9-1-3-4-0"
       inkscape:connector-curvature="0" />
    <path
       style="fill:none;stroke:#000000;stroke-width:0.66538477px;stroke-linecap:butt;stroke-linejoin:miter;stroke-opacity:1"
       d="M 301.08763,727.09616 C 250.83573,700.1976 243.98319,697.03307 243.98319,697.03307"
       id="path3149-4-5-3-0-8-9-1-3-4-7-7"
       inkscape:connector-curvature="0" />
    <path
       style="fill:none;stroke:#000000;stroke-width:0.66538477px;stroke-linecap:butt;stroke-linejoin:miter;stroke-opacity:1"
       d="m 301.08763,585.45361 c -50.2519,-26.89854 -57.10444,-30.06307 -57.10444,-30.06307"
       id="path3149-4-5-3-0-8-9-1-3-4-7-4-2"
       inkscape:connector-curvature="0"
       inkscape:transform-center-x="6.0612078"
       inkscape:transform-center-y="91.959162" />
    <path
       style="fill:none;stroke:#000000;stroke-width:0.66538477px;stroke-linecap:butt;stroke-linejoin:miter;stroke-opacity:1"
       d="m 220.58097,772.65211 c 23.90079,-13.44376 23.9394,-13.07384 23.9394,-13.07384"
       id="path3149-9"
       inkscape:connector-curvature="0"
       sodipodi:nodetypes="cc" />
    <path
       style="fill:none;stroke:#000000;stroke-width:0.66538477px;stroke-linecap:butt;stroke-linejoin:miter;stroke-opacity:1"
       d="m 191.8288,772.11305 c 51.13446,-26.25786 52.69157,-27.50027 52.69157,-27.50027"
       id="path3149-4-1"
       inkscape:connector-curvature="0"
       sodipodi:nodetypes="cc" />
    <path
       style="fill:none;stroke:#000000;stroke-width:0.66538477px;stroke-linecap:butt;stroke-linejoin:miter;stroke-opacity:1"
       d="m 267.92259,772.47201 c -23.9008,-13.44375 -23.9394,-13.07384 -23.9394,-13.07384"
       id="path3149-9-0"
       inkscape:connector-curvature="0"
       sodipodi:nodetypes="cc" />
    <path
       style="fill:none;stroke:#000000;stroke-width:0.66538477px;stroke-linecap:butt;stroke-linejoin:miter;stroke-opacity:1"
       d="M 296.67476,771.93295 C 245.54029,745.6751 243.98319,744.43268 243.98319,744.43268"
       id="path3149-4-1-8"
       inkscape:connector-curvature="0"
       sodipodi:nodetypes="cc" />
    <path
       style="fill:none;stroke:#000000;stroke-width:1.12545526px;stroke-linecap:butt;stroke-linejoin:miter;stroke-opacity:1"
       d="m 186.74815,584.82841 0.35661,186.65521"
       id="path3553"
       inkscape:connector-curvature="0" />
    <path
       style="fill:none;stroke:#000000;stroke-width:1.12545526px;stroke-linecap:butt;stroke-linejoin:miter;stroke-opacity:1"
       d="m 300.52691,584.82841 0.35662,186.65521"
       id="path3553-5"
       inkscape:connector-curvature="0" />
    <rect
       style="fill:#ff8534;fill-opacity:1;stroke-width:1.5;stroke-linejoin:round;stroke-miterlimit:4;stroke-dasharray:none"
       id="rect3573"
       width="88.585228"
       height="238.9285"
       x="-444.302"
       y="330.07721"
       transform="matrix(-1,0,-0.22657578,0.97399354,0,0)" />
    <rect
       style="fill:#ff8534;fill-opacity:1;stroke-width:1.5;stroke-linejoin:round;stroke-miterlimit:4;stroke-dasharray:none"
       id="rect3573-0"
       width="88.585228"
       height="205.63367"
       x="-420.09891"
       y="248.22691"
       transform="matrix(-1,0,-0.26326142,0.96472453,0,0)" />
    <path
       style="fill:none;stroke:#ff0000;stroke-width:4.91017818;stroke-linecap:butt;stroke-linejoin:round;stroke-miterlimit:4;stroke-opacity:1;stroke-dasharray:14.73053488, 4.9101783;stroke-dashoffset:0"
       d="m 403.82957,771.63675 -30.25985,-101.46503 38.32914,-126.83129 -50.43307,-122.9288 28.24252,-144.39255 34.29449,-83.90379 0,-13.65876 2.0173,5.85375"
       id="path3593"
       inkscape:connector-curvature="0" />
    <path
       style="fill:none;stroke:#ff0000;stroke-width:4.8568778;stroke-linecap:butt;stroke-linejoin:round;stroke-miterlimit:4;stroke-opacity:1;stroke-dasharray:19.42751239, 4.8568781;stroke-dashoffset:0"
       d="M 593.62754,769.75515 579.49429,626.69277 541.1326,508.42786 557.28488,443.57292 561.32296,355.828 529.01838,268.08306 472.48536,189.87562"
       id="path3595"
       inkscape:connector-curvature="0" />
    <path
       style="fill:none;stroke:#ff0000;stroke-width:4.8568778;stroke-linecap:butt;stroke-linejoin:round;stroke-miterlimit:4;stroke-opacity:1;stroke-dasharray:19.42751239, 4.8568781;stroke-dashoffset:0"
       d="m 107.0398,758.31017 60.57109,-242.25231 109.02797,22.88998 4.03808,-135.4324 86.81854,-217.45482 0,0"
       id="path3597"
       inkscape:connector-curvature="0" />
    <path
       style="fill:none;stroke:#ff0000;stroke-width:4.8568778;stroke-linecap:butt;stroke-linejoin:round;stroke-miterlimit:4;stroke-opacity:1;stroke-dasharray:19.42751239, 9.7137562;stroke-dashoffset:0"
       d="m 244.33427,765.94016 6.05711,-173.58236 -141.33254,-93.46742 28.26652,-74.39244 30.28553,-82.02244 38.3617,-57.22496 46.43783,-49.59495 56.53301,-34.33499 78.74242,-24.79747 22.20939,0"
       id="path4367"
       inkscape:connector-curvature="0" />
  </g>
</svg>
