<?xml version="1.0" encoding="UTF-8" standalone="no"?>
<!-- Created with Inkscape (http://www.inkscape.org/) -->

<svg xmlns:dc="http://purl.org/dc/elements/1.1/" xmlns:cc="http://creativecommons.org/ns#" xmlns:rdf="http://www.w3.org/1999/02/22-rdf-syntax-ns#"
    xmlns="http://www.w3.org/2000/svg" xmlns:sodipodi="http://sodipodi.sourceforge.net/DTD/sodipodi-0.dtd"
    xmlns:inkscape="http://www.inkscape.org/namespaces/inkscape" width="210mm" height="297mm" id="svg3182"
    version="1.1" inkscape:version="0.48.4 r9939" sodipodi:docname="ic_RP_src.svg"
    inkscape:export-filename="C:\Users\Martin\Programming\TT_DownLoaderAND\res\drawable\ic_solo.png"
    inkscape:export-xdpi="9" inkscape:export-ydpi="9">
  <defs
     id="defs3184" />
  <sodipodi:namedview
     id="base"
     pagecolor="#ffffff"
     bordercolor="#666666"
     borderopacity="1.0"
     inkscape:pageopacity="0.0"
     inkscape:pageshadow="2"
     inkscape:zoom="0.1"
     inkscape:cx="323.11623"
     inkscape:cy="775.23695"
     inkscape:document-units="px"
     inkscape:current-layer="layer1"
     showgrid="false"
     inkscape:window-width="1600"
     inkscape:window-height="837"
     inkscape:window-x="-8"
     inkscape:window-y="-8"
     inkscape:window-maximized="1" />
  <metadata
     id="metadata3187">
    <rdf:RDF>
      <cc:Work
         rdf:about="">
        <dc:format>image/svg+xml</dc:format>
        <dc:mType
           rdf:resource="http://purl.org/dc/dcmitype/StillImage" />
        <dc:title></dc:title>
      </cc:Work>
    </rdf:RDF>
  </metadata>
  <g
     inkscape:label="Ebene 1"
     inkscape:groupmode="layer"
     id="layer1">
    <path
       sodipodi:mType="arc"
       style="fill:#ff0000"
       id="path3190"
       sodipodi:cx="287.85715"
       sodipodi:cy="390.21933"
       sodipodi:rx="109.28571"
       sodipodi:ry="107.85714"
       d="m 397.14286,390.21933 a 109.28571,107.85714 0 1 1 -218.57143,0 109.28571,107.85714 0 1 1 218.57143,0 z"
       transform="matrix(0.91503269,0,0,0.92715235,15.172301,36.283702)" />
    <ellipse
       style="fill:#ffffff"
       sodipodi:ry="22.5"
       sodipodi:rx="5"
       sodipodi:cy="0"
       sodipodi:cx="0"
       cy="0"
       cx="0"
       d="M 5,0 C 5,12.426407 2.7614237,22.5 0,22.5 -2.7614237,22.5 -5,12.426407 -5,0 c 0,-12.426407 2.2385763,-22.5 5,-22.5 2.7614237,0 5,10.073593 5,22.5 z"
       id="ellipse10"
       ry="22.5"
       rx="5"
       transform="matrix(0.35237256,0.55317911,-0.54627238,0.35682774,283.75713,406.61145)" />
    <rect
       style="fill:#28220b;fill-rule:evenodd;stroke:#000000;stroke-width:0.21062267px;stroke-linecap:butt;stroke-linejoin:miter;stroke-opacity:1"
       id="rect3013"
       width="6.5058684"
       height="86.292763"
       x="529.26337"
       y="511.8418"
       transform="matrix(0.96695439,-0.25494943,-0.42304175,0.90611019,0,0)" />
    <path
       sodipodi:mType="star"
       style="fill:#28220b"
       id="path3033-8"
       sodipodi:sides="3"
       sodipodi:cx="105.83333"
       sodipodi:cy="221.52885"
       sodipodi:r1="23.45948"
       sodipodi:r2="46.918961"
       sodipodi:arg1="1.2265776"
       sodipodi:arg2="2.2737752"
       inkscape:flatsided="false"
       inkscape:rounded="0"
       inkscape:randomized="0"
       d="m 113.75,243.61219 -38.24946,13.71207 7.249727,-39.98104 7.249728,-39.98103 30.999725,26.26896 30.99973,26.26897 z"
       transform="matrix(0.37908456,0.46093319,0.33501967,-0.54332132,164.27743,460.52573)" />
    <rect
       style="fill:#28220b;fill-rule:evenodd;stroke:#000000;stroke-width:0.21062267px;stroke-linecap:butt;stroke-linejoin:miter;stroke-opacity:1"
       id="rect3013-1"
       width="6.5058684"
       height="86.292763"
       x="-128.59843"
       y="326.39954"
       transform="matrix(-0.96695439,-0.25494943,0.42304175,0.90611019,0,0)" />
    <path
       sodipodi:mType="star"
       style="fill:#28220b"
       id="path3033"
       sodipodi:sides="3"
       sodipodi:cx="105.83333"
       sodipodi:cy="221.52885"
       sodipodi:r1="23.45948"
       sodipodi:r2="46.918961"
       sodipodi:arg1="1.2265776"
       sodipodi:arg2="2.2737752"
       inkscape:flatsided="false"
       inkscape:rounded="0"
       inkscape:randomized="0"
       d="m 113.75,243.61219 -38.24946,13.71207 7.249727,-39.98104 7.249728,-39.98103 30.999725,26.26896 30.99973,26.26897 z"
       transform="matrix(0.20311873,-0.2390024,0.17950815,0.28172217,217.78194,311.74756)" />
    <rect
       style="fill:#28220b"
       id="rect3035"
       width="5.0452023"
       height="9.4438925"
       x="276.39011"
       y="335.66901" />
    <path
       sodipodi:mType="arc"
       style="fill:#28220b"
       id="path3037"
       sodipodi:cx="343.75"
       sodipodi:cy="164.02885"
       sodipodi:rx="40.416668"
       sodipodi:ry="23.333334"
       d="m 384.16667,164.02885 a 40.416668,23.333334 0 1 1 -80.83334,0 40.416668,23.333334 0 1 1 80.83334,0 z"
       transform="matrix(0.15887423,0,0,0.27867225,224.29968,287.17201)" />
    <rect
       style="fill:#ff0000"
       id="rect3075"
       width="61.153976"
       height="5.7282629"
       x="247.85117"
       y="404.90359" />
    <path
       sodipodi:mType="star"
       style="fill:#ff0000"
       id="path3033-8-8"
       sodipodi:sides="3"
       sodipodi:cx="105.83333"
       sodipodi:cy="221.52885"
       sodipodi:r1="23.45948"
       sodipodi:r2="46.918961"
       sodipodi:arg1="1.2265776"
       sodipodi:arg2="2.2737752"
       inkscape:flatsided="false"
       inkscape:rounded="0"
       inkscape:randomized="0"
       d="m 113.75,243.61219 -38.24946,13.71207 7.249727,-39.98104 7.249728,-39.98103 30.999725,26.26896 30.99973,26.26897 z"
       transform="matrix(0.20311873,0.30046015,0.17950815,-0.35416501,217.23624,444.21721)" />
    <polygon
       style="fill:#1f1a17"
       id="polygon6"
       points="106.711,172.749 206.74,172.749 156.726,127.375 106.711,82 56.6965,127.375 6.6818,172.749 "
       transform="matrix(0.65006191,0,0,0.65828089,209.58377,347.95908)" />
    <ellipse
       style="fill:#ff0000"
       sodipodi:ry="22.5"
       sodipodi:rx="5"
       sodipodi:cy="0"
       sodipodi:cx="0"
       cy="0"
       cx="0"
       d="M 5,0 C 5,12.426407 2.7614237,22.5 0,22.5 -2.7614237,22.5 -5,12.426407 -5,0 c 0,-12.426407 2.2385763,-22.5 5,-22.5 2.7614237,0 5,10.073593 5,22.5 z"
       id="ellipse8"
       ry="22.5"
       rx="5"
       transform="matrix(0.23024478,0.50426489,-0.49796887,0.23315586,282.61302,412.72484)" />
    <ellipse
       style="fill:#ff0000"
       sodipodi:ry="22.5"
       sodipodi:rx="5"
       sodipodi:cy="0"
       sodipodi:cx="0"
       cy="0"
       cx="0"
       d="M 5,0 C 5,12.426407 2.7614237,22.5 0,22.5 -2.7614237,22.5 -5,12.426407 -5,0 c 0,-12.426407 2.2385763,-22.5 5,-22.5 2.7614237,0 5,10.073593 5,22.5 z"
       id="ellipse12"
       ry="22.5"
       rx="5"
       transform="matrix(0.36688388,0.74760961,-0.53190731,0.43727756,284.16017,417.62956)" />
    <ellipse
       style="fill:#ff0000"
       sodipodi:ry="22.5"
       sodipodi:rx="5"
       sodipodi:cy="0"
       sodipodi:cx="0"
       cy="0"
       cx="0"
       d="M 5,0 C 5,12.426407 2.7614237,22.5 0,22.5 -2.7614237,22.5 -5,12.426407 -5,0 c 0,-12.426407 2.2385763,-22.5 5,-22.5 2.7614237,0 5,10.073593 5,22.5 z"
       id="ellipse14"
       ry="22.5"
       rx="5"
       transform="matrix(0.36688388,0.74760961,-0.53190731,0.43727756,286.69931,422.3389)" />
    <ellipse
       style="fill:#ff0000"
       sodipodi:ry="22.5"
       sodipodi:rx="5"
       sodipodi:cy="0"
       sodipodi:cx="0"
       cy="0"
       cx="0"
       d="M 5,0 C 5,12.426407 2.7614237,22.5 0,22.5 -2.7614237,22.5 -5,12.426407 -5,0 c 0,-12.426407 2.2385763,-22.5 5,-22.5 2.7614237,0 5,10.073593 5,22.5 z"
       id="ellipse16"
       ry="22.5"
       rx="5"
       transform="matrix(0.44314526,0.90300339,-0.64247049,0.52817101,289.21635,427.81843)" />
    <ellipse
       style="fill:#ff0000"
       sodipodi:ry="22.5"
       sodipodi:rx="5"
       sodipodi:cy="0"
       sodipodi:cx="0"
       cy="0"
       cx="0"
       d="M 5,0 C 5,12.426407 2.7614237,22.5 0,22.5 -2.7614237,22.5 -5,12.426407 -5,0 c 0,-12.426407 2.2385763,-22.5 5,-22.5 2.7614237,0 5,10.073593 5,22.5 z"
       id="ellipse18"
       ry="22.5"
       rx="5"
       transform="matrix(0.51214997,0.65419559,-0.43067836,0.53956651,297.34212,428.26935)" />
    <ellipse
       style="fill:#ff0000"
       sodipodi:ry="22.5"
       sodipodi:rx="5"
       sodipodi:cy="0"
       sodipodi:cx="0"
       cy="0"
       cx="0"
       d="M 5,0 C 5,12.426407 2.7614237,22.5 0,22.5 -2.7614237,22.5 -5,12.426407 -5,0 c 0,-12.426407 2.2385763,-22.5 5,-22.5 2.7614237,0 5,10.073593 5,22.5 z"
       id="ellipse20"
       ry="22.5"
       rx="5"
       transform="matrix(0.51214997,0.65419559,-0.43067836,0.53956651,307.36738,434.26169)" />
    <ellipse
       style="fill:#ff0000"
       sodipodi:ry="22.5"
       sodipodi:rx="5"
       sodipodi:cy="0"
       sodipodi:cx="0"
       cy="0"
       cx="0"
       d="M 5,0 C 5,12.426407 2.7614237,22.5 0,22.5 -2.7614237,22.5 -5,12.426407 -5,0 c 0,-12.426407 2.2385763,-22.5 5,-22.5 2.7614237,0 5,10.073593 5,22.5 z"
       id="ellipse22"
       ry="22.5"
       rx="5"
       transform="matrix(0.45655798,0.44951829,-0.27689453,0.45667974,323.20809,434.20705)" />
    <ellipse
       style="fill:#ff0000"
       sodipodi:ry="22.5"
       sodipodi:rx="5"
       sodipodi:cy="0"
       sodipodi:cx="0"
       cy="0"
       cx="0"
       d="M 5,0 C 5,12.426407 2.7614237,22.5 0,22.5 -2.7614237,22.5 -5,12.426407 -5,0 c 0,-12.426407 2.2385763,-22.5 5,-22.5 2.7614237,0 5,10.073593 5,22.5 z"
       id="ellipse24"
       ry="22.5"
       rx="5"
       transform="matrix(0.37838803,0.48333485,-0.3181949,0.39864372,312.73624,435.68423)" />
    <ellipse
       style="fill:#ff0000"
       sodipodi:ry="22.5"
       sodipodi:rx="5"
       sodipodi:cy="0"
       sodipodi:cx="0"
       cy="0"
       cx="0"
       d="M 5,0 C 5,12.426407 2.7614237,22.5 0,22.5 -2.7614237,22.5 -5,12.426407 -5,0 c 0,-12.426407 2.2385763,-22.5 5,-22.5 2.7614237,0 5,10.073593 5,22.5 z"
       id="ellipse26"
       ry="22.5"
       rx="5"
       transform="matrix(0.37838803,0.48333485,-0.3181949,0.39864372,319.1881,435.4354)" />
    <ellipse
       style="fill:#ff0000"
       sodipodi:ry="22.5"
       sodipodi:rx="5"
       sodipodi:cy="0"
       sodipodi:cx="0"
       cy="0"
       cx="0"
       d="M 5,0 C 5,12.426407 2.7614237,22.5 0,22.5 -2.7614237,22.5 -5,12.426407 -5,0 c 0,-12.426407 2.2385763,-22.5 5,-22.5 2.7614237,0 5,10.073593 5,22.5 z"
       id="ellipse28"
       ry="22.5"
       rx="5"
       transform="matrix(0.37838803,0.48333485,-0.3181949,0.39864372,302.93656,430.97752)" />
    <line
       style="fill:none;stroke:#1f1a17;stroke-width:1.96247542"
       id="line30"
       y2="455.66043"
       x2="335.96555"
       y1="403.49121"
       x1="279.17938" />
    <path
       sodipodi:mType="arc"
       style="fill:#ff0000"
       id="path3190-7"
       sodipodi:cx="287.85715"
       sodipodi:cy="390.21933"
       sodipodi:rx="109.28571"
       sodipodi:ry="107.85714"
       d="m 397.14286,390.21933 a 109.28571,107.85714 0 1 1 -218.57143,0 109.28571,107.85714 0 1 1 218.57143,0 z"
       transform="matrix(0.91503269,0,0,0.92715235,310.25559,21.184279)"
       inkscape:export-filename="C:\Users\Martin\Programming\TT_DownLoaderAND\res\drawable\ic_solo.png"
       inkscape:export-xdpi="9"
       inkscape:export-ydpi="9" />
    <a
       id="a3402"
       transform="translate(14.262385,-19.230979)"
       inkscape:export-filename="C:\Users\Martin\Programming\TT_DownLoaderAND\res\drawable\ic_solo.png"
       inkscape:export-xdpi="9"
       inkscape:export-ydpi="9">
      <path
         id="skull"
         style="fill:#000000"
         d="m 587.39356,449.37656 c -2.24571,3.05429 -7.33097,4.17096 -10.37684,6.84698 -3.64763,3.20474 -9.38624,8.18062 -17.14478,8.20261 -7.41327,0.022 -14.4325,-3.83195 -18.44738,-8.34261 -2.22655,-2.50149 -8.70064,-4.07542 -10.51659,-6.70698 -2.50402,-3.62865 -4.62929,-9.6672 -4.16962,-13.01049 0.19252,-1.40036 5.33476,-2.77317 6.12624,-1.22049 6.1983,12.15954 15.2841,14.27948 26.88297,14.27948 11.25403,0 19.02331,0.20831 25.62585,-14.09322 1.14482,-2.47976 5.64082,-0.54839 6.17004,1.01937 1.88965,5.59774 0.0184,0.003 0.0369,0.008 0.0184,0.003 -1.56564,9.45306 -4.18675,13.01792 z m -27.70304,-38.14049 c -2.24238,3.58876 -10.13377,9.35861 -10.1529,11.45543 -0.0508,5.56198 6.07095,5.64753 10.26227,3.19701 4.29241,2.08136 10.22382,2.96859 9.95371,-3.3344 -0.1028,-2.39918 -7.09272,-6.93863 -10.06308,-11.31804 z m 20.74017,22.11538 c -2.17351,1.23662 -1.04614,5.82943 -3.41397,6.6517 -10.57437,3.67215 -23.87827,2.86324 -34.27545,0.38319 -3.28173,-0.7828 -2.89036,-6.44689 -4.11478,-7.03489 -7.33335,-3.52175 -18.12171,-4.40919 -23.88425,-8.78756 -2.63108,-1.99911 -1.06451,-15.43136 -5.75553,-17.97128 -4.29077,-2.32319 -6.00904,-10.73222 -7.51959,-17.91062 -1.50268,-7.14102 -2.65171,-21.48561 6.42862,-31.10109 9.08035,-9.61551 26.09086,-17.59109 52.1215,-17.59109 26.01345,0 43.4601,7.52309 52.05796,17.59109 8.62728,10.10242 6.26621,24.4141 4.92596,31.10109 -1.469,7.32929 -5.40589,14.94534 -8.85526,17.71023 -3.58815,2.87612 -2.47018,16.65576 -3.99288,18.17167 -2.98888,2.97553 -16.85041,4.87775 -23.72233,8.78756 z m -60.695,-33.65061 c -0.2226,10.03512 10.89536,14.64593 20.03848,11.8354 10.48875,-3.22415 11.83574,-20.23474 0.53378,-23.21203 -9.26922,-2.4418 -20.33879,0.85053 -20.57226,11.37663 z m 67.6449,12.40617 c 12.0536,-1.36458 15.67962,-18.60354 5.23611,-23.1939 -8.40789,-3.69561 -21.3808,-0.75227 -22.56461,9.57516 -1.42501,12.43189 8.50948,14.61712 17.3285,13.61874 z"
         inkscape:connector-curvature="0"
         sodipodi:nodetypes="cscsssssssccccscscssssssssssssssssssssss" />
    </a>
  </g>
</svg>
