<?xml version="1.0" encoding="UTF-8" standalone="no"?>
<!-- Creator: CorelDRAW -->

<svg
   xmlns:dc="http://purl.org/dc/elements/1.1/"
   xmlns:cc="http://creativecommons.org/ns#"
   xmlns:rdf="http://www.w3.org/1999/02/22-rdf-syntax-ns#"
   xmlns:svg="http://www.w3.org/2000/svg"
   xmlns="http://www.w3.org/2000/svg"
   xmlns:sodipodi="http://sodipodi.sourceforge.net/DTD/sodipodi-0.dtd"
   xmlns:inkscape="http://www.inkscape.org/namespaces/inkscape"
   xml:space="preserve"
   width="210mm"
   height="297mm"
   shape-rendering="geometricPrecision"
   text-rendering="geometricPrecision"
   image-rendering="optimizeQuality"
   fill-rule="evenodd"
   clip-rule="evenodd"
   viewBox="0 0 210 297"
   id="svg2"
   version="1.1"
   inkscape:version="0.48.4 r9939"
   sodipodi:docname="Solo.svg"><metadata
   id="metadata36"><rdf:RDF><cc:Work
       rdf:about=""><dc:format>image/svg+xml</dc:format><dc:mType
         rdf:resource="http://purl.org/dc/dcmitype/StillImage" /></cc:Work></rdf:RDF></metadata><defs
   id="defs34">
  
  
  
  
  
  
  
  
  
  
  
  
  
  
 </defs><sodipodi:namedview
   pagecolor="#ffffff"
   bordercolor="#666666"
   borderopacity="1"
   objecttolerance="10"
   gridtolerance="10"
   guidetolerance="10"
   inkscape:pageopacity="0"
   inkscape:pageshadow="2"
   inkscape:window-width="1600"
   inkscape:window-height="837"
   id="namedview32"
   showgrid="false"
   inkscape:zoom="0.5"
   inkscape:cx="360.44781"
   inkscape:cy="732.8255"
   inkscape:window-x="-8"
   inkscape:window-y="-8"
   inkscape:window-maximized="1"
   inkscape:current-layer="svg2" />
 <ellipse
   style="fill:#ffffff"
   sodipodi:ry="22.5"
   sodipodi:rx="5"
   sodipodi:cy="0"
   sodipodi:cx="0"
   cy="0"
   cx="0"
   d="M 5,0 C 5,12.426407 2.7614237,22.5 0,22.5 -2.7614237,22.5 -5,12.426407 -5,0 c 0,-12.426407 2.2385763,-22.5 5,-22.5 2.7614237,0 5,10.073593 5,22.5 z"
   id="ellipse10"
   ry="22.5"
   rx="5"
   transform="matrix(0.54206,0.840339,-0.840339,0.54206,111.58505,175.93405)" /><rect
   style="fill:#28220b;fill-rule:evenodd;stroke:#000000;stroke-width:0.32221088px;stroke-linecap:butt;stroke-linejoin:miter;stroke-opacity:1"
   id="rect3013"
   width="10"
   height="131.38622"
   x="184.51758"
   y="115.36732"
   transform="matrix(0.96773516,-0.25196956,-0.42741828,0.90405399,0,0)" /><path
   sodipodi:mType="star"
   style="fill:#28220b"
   id="path3033-8"
   sodipodi:sides="3"
   sodipodi:cx="105.83333"
   sodipodi:cy="221.52885"
   sodipodi:r1="23.45948"
   sodipodi:r2="46.918961"
   sodipodi:arg1="1.2265776"
   sodipodi:arg2="2.2737752"
   inkscape:flatsided="false"
   inkscape:rounded="0"
   inkscape:randomized="0"
   d="m 113.75,243.61219 -38.24946,13.71207 7.249727,-39.98104 7.249728,-39.98103 30.999725,26.26896 30.99973,26.26897 z"
   transform="matrix(0.58315148,0.70020746,0.51536579,-0.82536396,-72.212361,257.83568)" /><rect
   style="fill:#28220b;fill-rule:evenodd;stroke:#000000;stroke-width:0.32221088px;stroke-linecap:butt;stroke-linejoin:miter;stroke-opacity:1"
   id="rect3013-1"
   width="10"
   height="131.38622"
   x="-60.887272"
   y="46.450081"
   transform="matrix(-0.96773516,-0.25196956,0.42741829,0.90405398,0,0)" /><path
   sodipodi:mType="star"
   style="fill:#28220b"
   id="path3033"
   sodipodi:sides="3"
   sodipodi:cx="105.83333"
   sodipodi:cy="221.52885"
   sodipodi:r1="23.45948"
   sodipodi:r2="46.918961"
   sodipodi:arg1="1.2265776"
   sodipodi:arg2="2.2737752"
   inkscape:flatsided="false"
   inkscape:rounded="0"
   inkscape:randomized="0"
   d="m 113.75,243.61219 -38.24946,13.71207 7.249727,-39.98104 7.249728,-39.98103 30.999725,26.26896 30.99973,26.26897 z"
   transform="matrix(0.31246058,-0.36307053,0.27614008,0.42796649,10.094429,31.825526)" /><rect
   style="fill:#28220b"
   id="rect3035"
   width="7.7611108"
   height="14.346296"
   x="100.25224"
   y="68.16481" /><path
   sodipodi:mType="arc"
   style="fill:#28220b"
   id="path3037"
   sodipodi:cx="343.75"
   sodipodi:cy="164.02885"
   sodipodi:rx="40.416668"
   sodipodi:ry="23.333334"
   d="m 384.16667,164.02885 a 40.416668,23.333334 0 1 1 -80.83334,0 40.416668,23.333334 0 1 1 80.83334,0 z"
   transform="matrix(0.24439862,0,0,0.42333333,20.120769,-5.5074022)" /><rect
   style="fill:#ffffff"
   id="rect3075"
   width="94.074081"
   height="8.7018518"
   x="56.350368"
   y="173.33961" /><path
   sodipodi:mType="star"
   style="fill:#ffffff"
   id="path3033-8-8"
   sodipodi:sides="3"
   sodipodi:cx="105.83333"
   sodipodi:cy="221.52885"
   sodipodi:r1="23.45948"
   sodipodi:r2="46.918961"
   sodipodi:arg1="1.2265776"
   sodipodi:arg2="2.2737752"
   inkscape:flatsided="false"
   inkscape:rounded="0"
   inkscape:randomized="0"
   d="m 113.75,243.61219 -38.24946,13.71207 7.249727,-39.98104 7.249728,-39.98103 30.999725,26.26896 30.99973,26.26897 z"
   transform="matrix(0.31246058,0.45643153,0.27614008,-0.53801503,9.2549702,233.06127)" /><polygon
   style="fill:#1f1a17"
   id="polygon6"
   points="106.711,172.749 206.74,172.749 156.726,127.375 106.711,82 56.6965,127.375 6.6818,172.749 "
   transform="translate(-2.5169492,86.834746)" /><ellipse
   style="fill:#ffffff"
   sodipodi:ry="22.5"
   sodipodi:rx="5"
   sodipodi:cy="0"
   sodipodi:cx="0"
   cy="0"
   cx="0"
   d="M 5,0 C 5,12.426407 2.7614237,22.5 0,22.5 -2.7614237,22.5 -5,12.426407 -5,0 c 0,-12.426407 2.2385763,-22.5 5,-22.5 2.7614237,0 5,10.073593 5,22.5 z"
   id="ellipse8"
   ry="22.5"
   rx="5"
   transform="matrix(0.354189,0.766033,-0.766033,0.354189,109.82505,185.22095)" /><ellipse
   style="fill:#ffffff"
   sodipodi:ry="22.5"
   sodipodi:rx="5"
   sodipodi:cy="0"
   sodipodi:cx="0"
   cy="0"
   cx="0"
   d="M 5,0 C 5,12.426407 2.7614237,22.5 0,22.5 -2.7614237,22.5 -5,12.426407 -5,0 c 0,-12.426407 2.2385763,-22.5 5,-22.5 2.7614237,0 5,10.073593 5,22.5 z"
   id="ellipse12"
   ry="22.5"
   rx="5"
   transform="matrix(0.564383,1.1357,-0.818241,0.664272,112.20505,192.67175)" /><ellipse
   style="fill:#ffffff"
   sodipodi:ry="22.5"
   sodipodi:rx="5"
   sodipodi:cy="0"
   sodipodi:cx="0"
   cy="0"
   cx="0"
   d="M 5,0 C 5,12.426407 2.7614237,22.5 0,22.5 -2.7614237,22.5 -5,12.426407 -5,0 c 0,-12.426407 2.2385763,-22.5 5,-22.5 2.7614237,0 5,10.073593 5,22.5 z"
   id="ellipse14"
   ry="22.5"
   rx="5"
   transform="matrix(0.564383,1.1357,-0.818241,0.664272,116.11105,199.82575)" /><ellipse
   style="fill:#ffffff"
   sodipodi:ry="22.5"
   sodipodi:rx="5"
   sodipodi:cy="0"
   sodipodi:cx="0"
   cy="0"
   cx="0"
   d="M 5,0 C 5,12.426407 2.7614237,22.5 0,22.5 -2.7614237,22.5 -5,12.426407 -5,0 c 0,-12.426407 2.2385763,-22.5 5,-22.5 2.7614237,0 5,10.073593 5,22.5 z"
   id="ellipse16"
   ry="22.5"
   rx="5"
   transform="matrix(0.681697,1.37176,-0.988322,0.802349,119.98305,208.14975)" /><ellipse
   style="fill:#ffffff"
   sodipodi:ry="22.5"
   sodipodi:rx="5"
   sodipodi:cy="0"
   sodipodi:cx="0"
   cy="0"
   cx="0"
   d="M 5,0 C 5,12.426407 2.7614237,22.5 0,22.5 -2.7614237,22.5 -5,12.426407 -5,0 c 0,-12.426407 2.2385763,-22.5 5,-22.5 2.7614237,0 5,10.073593 5,22.5 z"
   id="ellipse18"
   ry="22.5"
   rx="5"
   transform="matrix(0.787848,0.993794,-0.662519,0.81966,132.48305,208.83475)" /><ellipse
   style="fill:#ffffff"
   sodipodi:ry="22.5"
   sodipodi:rx="5"
   sodipodi:cy="0"
   sodipodi:cx="0"
   cy="0"
   cx="0"
   d="M 5,0 C 5,12.426407 2.7614237,22.5 0,22.5 -2.7614237,22.5 -5,12.426407 -5,0 c 0,-12.426407 2.2385763,-22.5 5,-22.5 2.7614237,0 5,10.073593 5,22.5 z"
   id="ellipse20"
   ry="22.5"
   rx="5"
   transform="matrix(0.787848,0.993794,-0.662519,0.81966,147.90505,217.93775)" /><ellipse
   style="fill:#ffffff"
   sodipodi:ry="22.5"
   sodipodi:rx="5"
   sodipodi:cy="0"
   sodipodi:cx="0"
   cy="0"
   cx="0"
   d="M 5,0 C 5,12.426407 2.7614237,22.5 0,22.5 -2.7614237,22.5 -5,12.426407 -5,0 c 0,-12.426407 2.2385763,-22.5 5,-22.5 2.7614237,0 5,10.073593 5,22.5 z"
   id="ellipse22"
   ry="22.5"
   rx="5"
   transform="matrix(0.70233,0.682867,-0.425951,0.693746,172.27305,217.85475)" /><ellipse
   style="fill:#ffffff"
   sodipodi:ry="22.5"
   sodipodi:rx="5"
   sodipodi:cy="0"
   sodipodi:cx="0"
   cy="0"
   cx="0"
   d="M 5,0 C 5,12.426407 2.7614237,22.5 0,22.5 -2.7614237,22.5 -5,12.426407 -5,0 c 0,-12.426407 2.2385763,-22.5 5,-22.5 2.7614237,0 5,10.073593 5,22.5 z"
   id="ellipse24"
   ry="22.5"
   rx="5"
   transform="matrix(0.58208,0.734238,-0.489484,0.605583,156.16405,220.09875)" /><ellipse
   style="fill:#ffffff"
   sodipodi:ry="22.5"
   sodipodi:rx="5"
   sodipodi:cy="0"
   sodipodi:cx="0"
   cy="0"
   cx="0"
   d="M 5,0 C 5,12.426407 2.7614237,22.5 0,22.5 -2.7614237,22.5 -5,12.426407 -5,0 c 0,-12.426407 2.2385763,-22.5 5,-22.5 2.7614237,0 5,10.073593 5,22.5 z"
   id="ellipse26"
   ry="22.5"
   rx="5"
   transform="matrix(0.58208,0.734238,-0.489484,0.605583,166.08905,219.72075)" /><ellipse
   style="fill:#ffffff"
   sodipodi:ry="22.5"
   sodipodi:rx="5"
   sodipodi:cy="0"
   sodipodi:cx="0"
   cy="0"
   cx="0"
   d="M 5,0 C 5,12.426407 2.7614237,22.5 0,22.5 -2.7614237,22.5 -5,12.426407 -5,0 c 0,-12.426407 2.2385763,-22.5 5,-22.5 2.7614237,0 5,10.073593 5,22.5 z"
   id="ellipse28"
   ry="22.5"
   rx="5"
   transform="matrix(0.58208,0.734238,-0.489484,0.605583,141.08905,212.94875)" /><line
   style="fill:none;stroke:#1f1a17;stroke-width:3"
   id="line30"
   y2="250.44475"
   x2="191.89804"
   y1="171.19405"
   x1="104.54305" />
</svg>