<?xml version="1.0" encoding="UTF-8" standalone="no"?>
<!-- Created with Sodipodi ("http://www.sodipodi.com/") -->

<svg
   xmlns:dc="http://purl.org/dc/elements/1.1/"
   xmlns:cc="http://creativecommons.org/ns#"
   xmlns:rdf="http://www.w3.org/1999/02/22-rdf-syntax-ns#"
   xmlns:svg="http://www.w3.org/2000/svg"
   xmlns="http://www.w3.org/2000/svg"
   xmlns:xlink="http://www.w3.org/1999/xlink"
   xmlns:sodipodi="http://sodipodi.sourceforge.net/DTD/sodipodi-0.dtd"
   xmlns:inkscape="http://www.inkscape.org/namespaces/inkscape"
   height="400pt"
   id="svg548"
   inkscape:version="0.48.4 r9939"
   sodipodi:docname="Note.svg"
   sodipodi:version="0.32"
   width="400pt"
   version="1.1"
   inkscape:export-filename="C:\Users\Martin\Programming\TT_DownLoaderAND\res\drawable\Note.png"
   inkscape:export-xdpi="5.02"
   inkscape:export-ydpi="5.02">
  <metadata
     id="metadata2986">
    <rdf:RDF>
      <cc:Work
         rdf:about="">
        <dc:title>Clipart by Nicu Buculei - book_01</dc:title>
        <dc:description />
        <dc:subject>
          <rdf:Bag>
            <rdf:li>office</rdf:li>
            <rdf:li />
          </rdf:Bag>
        </dc:subject>
        <dc:publisher>
          <cc:Agent
             rdf:about="http://www.openclipart.org">
            <dc:title>Nicu Buculei</dc:title>
          </cc:Agent>
        </dc:publisher>
        <dc:creator>
          <cc:Agent>
            <dc:title>Nicu Buculei</dc:title>
          </cc:Agent>
        </dc:creator>
        <dc:rights>
          <cc:Agent>
            <dc:title>Nicu Buculei</dc:title>
          </cc:Agent>
        </dc:rights>
        <dc:date />
        <dc:format>image/svg+xml</dc:format>
        <dc:type
           rdf:resource="http://purl.org/dc/dcmitype/StillImage" />
        <cc:license
           rdf:resource="http://web.resource.org/cc/PublicDomain" />
        <dc:language>en</dc:language>
      </cc:Work>
      <cc:License
         rdf:about="http://web.resource.org/cc/PublicDomain">
        <cc:permits
           rdf:resource="http://web.resource.org/cc/Reproduction" />
        <cc:permits
           rdf:resource="http://web.resource.org/cc/Distribution" />
        <cc:permits
           rdf:resource="http://web.resource.org/cc/DerivativeWorks" />
      </cc:License>
    </rdf:RDF>
  </metadata>
  <defs
     id="defs550">
    <linearGradient
       id="linearGradient562">
      <stop
         id="stop563"
         offset="0.000000"
         style="stop-color:#de9500;stop-opacity:1;" />
      <stop
         id="stop564"
         offset="1.000000"
         style="stop-color:#ffff0f;stop-opacity:1;" />
    </linearGradient>
    <linearGradient
       id="linearGradient558">
      <stop
         id="stop559"
         offset="0"
         style="stop-color:#000;stop-opacity:1;" />
      <stop
         id="stop560"
         offset="1"
         style="stop-color:#fff;stop-opacity:1;" />
    </linearGradient>
    <linearGradient
       gradientUnits="userSpaceOnUse"
       id="linearGradient561"
       spreadMethod="reflect"
       x1="343.83105"
       x2="306.40499"
       xlink:href="#linearGradient562"
       y1="89.582811"
       y2="67.144361"
       gradientTransform="scale(1.0646869,0.93924326)" />
    <linearGradient
       inkscape:collect="always"
       xlink:href="#linearGradient562"
       id="linearGradient3020"
       gradientUnits="userSpaceOnUse"
       gradientTransform="matrix(0.78912464,0,0,0.67529054,165.0147,93.07255)"
       spreadMethod="reflect"
       x1="343.83105"
       y1="89.582811"
       x2="306.40499"
       y2="67.144361" />
  </defs>
  <sodipodi:namedview
     id="base"
     inkscape:cx="260"
     inkscape:cy="175.3172"
     inkscape:window-height="837"
     inkscape:window-width="1600"
     inkscape:window-x="-8"
     inkscape:window-y="-8"
     inkscape:zoom="1"
     showgrid="false"
     inkscape:window-maximized="1"
     inkscape:current-layer="svg548" />
  <path
     inkscape:connector-curvature="0"
     style="fill:#ffffff;fill-rule:evenodd;stroke:#000000;stroke-width:10;stroke-linejoin:round;stroke-dasharray:none"
     sodipodi:nodetypes="cccccc"
     id="path588"
     d="m 42.71343,11.430225 c -11.6412,149.065095 35.262,212.687095 -1.6959,451.942095 0,0 333.2339,3.392 332.3859,3.392 43.456,-250 -25.204,-331.333 2.657,-396.827495 -53.798,-0.7344 -67.099,-59.3545 -67.099,-59.3545 l -266.248,0.8479 z" />
  <path
     inkscape:connector-curvature="0"
     style="fill:#cca89d;fill-rule:evenodd;stroke:#000000;stroke-width:10;stroke-linejoin:round;stroke-dasharray:none"
     sodipodi:nodetypes="cccc"
     id="path554"
     d="m 241.48915,367.87024 -17.68811,73.08073 73.91565,-50.83859 c 0,0 -6.43863,-43.21315 -56.22754,-22.24214 z" />
  <path
     inkscape:connector-curvature="0"
     style="fill-rule:evenodd;stroke:#ff0000;stroke-width:12.5;stroke-linejoin:round;stroke-opacity:1"
     sodipodi:nodetypes="ccccc"
     id="path555"
     d="m 223.14591,441.58654 5.89608,-22.87772 c 0,-0.63558 7.8614,-0.63558 10.48185,2.54229 2.62066,0.63557 3.27586,5.71943 3.27586,5.71943 l -19.65379,14.616 z" />
  <path
     inkscape:connector-curvature="0"
     style="fill:#ffffff;fill-rule:evenodd;stroke-width:17.12347412;stroke-linejoin:round"
     sodipodi:nodetypes="cccc"
     id="path566"
     d="m 224.43919,439.73087 c 0,-0.89872 5.09561,-19.77176 6.48533,-19.77176 1.38971,0 6.02208,0.89872 6.02208,2.24679 -7.87503,4.49358 -11.1177,16.17689 -12.50741,17.52497 z" />
  <path
     style="fill:none;stroke:#ff0000;stroke-width:10;stroke-linecap:butt;stroke-linejoin:miter;stroke-miterlimit:4;stroke-opacity:1;stroke-dasharray:none"
     d="m 59.746556,432.78237 c 4.458002,-12.13926 12.671069,-24.79228 22.038564,-34.15978 52.93116,-52.93116 13.75307,44.07713 42.97521,44.07713 37.51659,0 23.12759,-60.24735 63.91185,-33.05785 10.16018,6.77346 18.20864,20.40484 29.75206,28.65014"
     id="path3038"
     inkscape:connector-curvature="0" />
  <path
     inkscape:connector-curvature="0"
     style="fill:#eeebff;fill-rule:evenodd;stroke:#000000;stroke-width:10;stroke-linejoin:round;stroke-dasharray:none"
     sodipodi:nodetypes="cccc"
     id="path589"
     d="m 308.96193,11.4302 -0.849,59.3546 68.681,0 c 3.392,-5.0876 -64.441,-57.6587 -67.832,-59.3546 z" />
  <path
     inkscape:connector-curvature="0"
     style="fill:#c96400;fill-rule:evenodd;stroke:#000000;stroke-width:10;stroke-linejoin:round;stroke-dasharray:none"
     sodipodi:nodetypes="cccccccc"
     id="path553"
     d="M 242.1445,367.87024 408.54386,139.09418 c 0,0 15.72265,-19.06465 33.41091,-8.26136 5.24162,1.271 3.93122,7e-5 14.41299,7.62586 2.62007,1.9065 3.93047,17.15822 3.93047,17.15822 0,0 -163.77928,234.49548 -163.77928,235.13106 0,0.63485 -2.62081,-13.98115 -17.03306,-21.6073 -13.10258,-7.62543 -36.68619,-0.63485 -37.34139,-1.27042 z" />
  <path
     inkscape:connector-curvature="0"
     style="fill:#fc64e3;fill-rule:evenodd;stroke:#000000;stroke-width:10;stroke-linejoin:round;stroke-dasharray:none"
     sodipodi:nodetypes="cccccccc"
     id="path556"
     d="m 401.33811,147.99104 32.1005,-37.4938 c 0,0 13.75704,-13.980743 27.51483,-6.99035 13.75704,6.99035 7.20575,3.17735 13.75778,7.62578 5.89535,8.89693 -1.96561,25.41958 -2.62081,25.41958 -0.65521,0 -26.85962,41.94265 -26.85962,41.94265 0,0 6.55054,-7.62614 -4.58643,-13.34564 -12.44663,-15.88722 -39.96146,-17.15822 -39.30625,-17.15822 z" />
  <path
     inkscape:connector-curvature="0"
     style="fill:url(#linearGradient3020);fill-rule:evenodd;stroke:#000000;stroke-width:10;stroke-linejoin:round;stroke-dasharray:none"
     sodipodi:nodetypes="ccccccccc"
     id="path557"
     d="m 394.13161,156.88782 c -0.6552,0 26.85962,-34.31629 26.85962,-34.31629 0,0 11.13698,-1.27107 20.96354,1.27093 11.13771,4.44843 6.55129,1.271 14.41299,6.99043 7.20575,5.71936 8.51615,19.06465 8.51615,19.06465 l -20.96353,31.77451 c 0,0 0.6552,-6.35501 -5.89609,-13.34486 -10.48177,-8.26194 -20.96427,-9.53286 -27.51482,-12.07487 -9.17211,-1.27092 -17.03306,1.271 -16.37786,0.6355 z" />
  <path
     inkscape:connector-curvature="0"
     style="fill:#ffffff;fill-opacity:0.503704;fill-rule:evenodd;stroke-width:17.12347412;stroke-linejoin:round"
     sodipodi:nodetypes="ccc"
     id="path564"
     d="M 258.05349,356.86462 C 268.7376,340.40445 395.20543,168.37558 398.97656,165.93704 451.7671,144.59986 295.13399,305.65505 258.05349,356.86462 z" />
  <path
     inkscape:connector-curvature="0"
     style="fill:#ffffff;fill-opacity:0.50196078;fill-rule:evenodd;stroke-width:17.12347412;stroke-linejoin:round"
     sodipodi:nodetypes="cccc"
     id="path565"
     d="m 236.95335,415.25415 c 0,-1.82907 7.54188,-34.13899 11.31197,-44.50299 1.25704,0 21.12674,-3.02601 28.03972,7.9484 -24.50934,3.65741 -38.09472,31.6778 -39.35169,36.55459 z" />
  <path
     inkscape:connector-curvature="0"
     style="fill-opacity:0.24999994;fill-rule:evenodd;stroke-width:17.12347412;stroke-linejoin:round"
     sodipodi:nodetypes="cccc"
     id="path567"
     d="m 459.6964,106.77965 c 0,0 14.45449,3.04823 14.45449,7.31562 3.77038,12.19263 -3.14261,18.89857 -7.54151,26.21419 1.25704,-11.58302 3.77112,-17.06964 -6.91298,-33.52981 z" />
  <text
     xml:space="preserve"
     style="font-size:72px;font-style:normal;font-weight:bold;line-height:125%;letter-spacing:0px;word-spacing:0px;fill:#ff0000;fill-opacity:1;stroke:none;font-family:Sans;-inkscape-font-specification:Sans Bold"
     x="69.66391"
     y="148.48485"
     id="text3009"
     sodipodi:linespacing="125%"><tspan
       sodipodi:role="line"
       id="tspan3011"
       x="69.66391"
       y="148.48485"
       style="font-size:144px;font-weight:bold;fill:#ff0000;fill-opacity:1;-inkscape-font-specification:Sans Bold">To-</tspan><tspan
       sodipodi:role="line"
       x="69.66391"
       y="328.48486"
       id="tspan3013"
       style="font-size:144px;font-weight:bold;fill:#ff0000;fill-opacity:1;-inkscape-font-specification:Sans Bold">Do</tspan></text>
</svg>
