<?xml version="1.0" encoding="UTF-8" standalone="no"?>
<!-- Generator: Adobe Illustrator 16.0.0, SVG Export Plug-In . SVG Version: 6.00 Build 0)  -->

<svg
   xmlns:dc="http://purl.org/dc/elements/1.1/"
   xmlns:cc="http://creativecommons.org/ns#"
   xmlns:rdf="http://www.w3.org/1999/02/22-rdf-syntax-ns#"
   xmlns="http://www.w3.org/2000/svg"
   xmlns:sodipodi="http://sodipodi.sourceforge.net/DTD/sodipodi-0.dtd"
   xmlns:inkscape="http://www.inkscape.org/namespaces/inkscape"
   version="1.1"
   id="Capa_1"
   x="0px"
   y="0px"
   width="490.318px"
   height="490.318px"
   viewBox="0 0 490.318 490.318"
   style="enable-background:new 0 0 490.318 490.318;"
   xml:space="preserve"
   sodipodi:docname="information-icon.svg"
   inkscape:version="0.92.2 (5c3e80d, 2017-08-06)"><metadata
     id="metadata49"><rdf:RDF><cc:Work
         rdf:about=""><dc:format>image/svg+xml</dc:format><dc:mType
           rdf:resource="http://purl.org/dc/dcmitype/StillImage" /><dc:title></dc:title></cc:Work></rdf:RDF></metadata><defs
     id="defs47" /><sodipodi:namedview
     pagecolor="#ffffff"
     bordercolor="#666666"
     borderopacity="1"
     objecttolerance="10"
     gridtolerance="10"
     guidetolerance="10"
     inkscape:pageopacity="0"
     inkscape:pageshadow="2"
     inkscape:window-width="1920"
     inkscape:window-height="1017"
     id="namedview45"
     showgrid="false"
     inkscape:zoom="0.48132029"
     inkscape:cx="-13.504521"
     inkscape:cy="245.159"
     inkscape:window-x="1912"
     inkscape:window-y="-8"
     inkscape:window-maximized="1"
     inkscape:current-layer="Capa_1" /><path
     inkscape:connector-curvature="0"
     style="fill:#ff8000;fill-opacity:1"
     id="path2"
     d="M 245.148,0 C 109.967,0 0.009,109.98 0.009,245.162 c 0,135.182 109.958,245.156 245.139,245.156 135.186,0 245.162,-109.978 245.162,-245.156 C 490.31,109.98 380.333,0 245.148,0 Z m 0,438.415 c -106.555,0 -193.234,-86.698 -193.234,-193.253 0,-106.555 86.68,-193.258 193.234,-193.258 106.559,0 193.258,86.703 193.258,193.258 0,106.555 -86.7,193.253 -193.258,193.253 z" /><path
     inkscape:connector-curvature="0"
     style="fill:#ff8000;fill-opacity:1"
     id="path4"
     d="m 270.036,221.352 h -49.771 c -8.351,0 -15.131,6.78 -15.131,15.118 v 147.566 c 0,8.352 6.78,15.119 15.131,15.119 h 49.771 c 8.351,0 15.131,-6.77 15.131,-15.119 V 236.471 c 0,-8.338 -6.78,-15.119 -15.131,-15.119 z" /><path
     inkscape:connector-curvature="0"
     style="fill:#ff8000;fill-opacity:1"
     id="path6"
     d="m 245.148,91.168 c -24.48,0 -44.336,19.855 -44.336,44.336 0,24.484 19.855,44.34 44.336,44.34 24.485,0 44.342,-19.855 44.342,-44.34 -0.001,-24.481 -19.856,-44.336 -44.342,-44.336 z" /><g
     id="g14" /><g
     id="g16" /><g
     id="g18" /><g
     id="g20" /><g
     id="g22" /><g
     id="g24" /><g
     id="g26" /><g
     id="g28" /><g
     id="g30" /><g
     id="g32" /><g
     id="g34" /><g
     id="g36" /><g
     id="g38" /><g
     id="g40" /><g
     id="g42" /></svg>