<?xml version="1.0" encoding="UTF-8" standalone="no"?>
<svg
   xmlns:svg="http://www.w3.org/2000/svg"
   xmlns="http://www.w3.org/2000/svg"
   version="1.0"
   width="800"
   height="500"
   id="jollyRoger">
  <rect
     width="800"
     height="500"
     x="0"
     y="0"
     style="fill:#000000"
     id="flag" />
  <path
     d="M 451.81171,265.36497 C 447.64219,271.63467 438.20058,273.92687 432.54542,279.42009 C 425.77299,285.99858 415.11832,296.21281 400.71333,296.25795 C 386.94937,296.30309 373.91703,288.39194 366.46274,279.13269 C 362.32879,273.99777 350.30858,270.76688 346.93696,265.36497 C 342.28784,257.91627 338.34192,245.52066 339.19537,238.65774 C 339.55284,235.78315 349.10025,232.96511 350.56975,236.15237 C 362.07791,261.11283 378.94719,265.46451 400.48238,265.46451 C 421.37733,265.46451 435.80228,265.89212 448.06097,236.53472 C 450.18652,231.44441 458.53407,235.40901 459.51667,238.62722 C 463.0251,250.11796 459.55088,238.63485 459.58509,238.64248 C 459.6193,238.65011 456.67821,258.04723 451.81171,265.36497 z M 401.15315,349.82096 C 428.6497,338.33085 471.53702,320.94045 500.21902,316.05553 C 508.49686,298.69973 551.32684,262.87205 543.19947,316.77497 C 567.49756,333.53825 557.34574,362.77025 512.01573,337.06863 C 489.2119,338.73435 447.98642,355.3597 428.76232,364.97844 C 446.86758,373.2976 483.39557,394.94317 499.20142,404.02919 C 593.58356,412.46992 551.54039,441.1633 528.14251,443.94272 C 528.61456,456.23044 489.13948,480.36378 478.46884,426.05934 C 467.91927,415.43991 412.35973,381.8373 398.67283,379.13378 C 379.87948,386.20505 336.26643,413.56128 318.62629,428.76514 C 312.71605,467.38597 292.64974,463.93982 273.49106,442.2079 C 235.77152,441.73193 222.70882,402.40591 303.3686,400.9806 C 318.91678,393.00469 355.15907,372.20728 371.66496,364.97844 C 342.80215,353.21387 308.82395,342.20857 285.98552,337.2161 C 252.37017,361.45378 229.09451,339.82862 255.04133,317.13559 C 252.34487,305.90843 257.68512,270.52131 306.10803,312.99863 C 324.89772,319.28437 378.44941,339.72236 401.15315,349.82096 z M 400.37648,187.07219 C 396.21315,194.43902 381.56148,206.28308 381.52596,210.5873 C 381.43175,222.00462 392.79767,222.18025 400.57953,217.14994 C 408.54912,221.42244 419.56175,223.24372 419.06025,210.30528 C 418.86936,205.38037 405.89144,196.06203 400.37648,187.07219 z M 438.88401,232.46948 C 434.84853,235.00796 436.94167,244.43582 432.54542,246.12374 C 412.91237,253.66173 388.21148,252.00123 368.90743,246.91031 C 362.81435,245.30342 363.54098,233.67651 361.26767,232.46948 C 347.65208,225.2402 327.62173,223.41852 316.92264,214.43082 C 312.03761,210.32718 314.94621,182.75415 306.23655,177.54037 C 298.27004,172.77145 295.07979,155.50982 292.27521,140.77441 C 289.48524,126.11572 287.35186,96.669903 304.211,76.931726 C 321.07014,57.193549 352.65294,40.821711 400.98308,40.821711 C 449.28132,40.821711 481.67388,56.264713 497.63722,76.931726 C 513.65519,97.669456 509.27146,127.0477 506.78306,140.77441 C 504.05564,155.81956 496.74614,171.45341 490.34183,177.12901 C 483.67984,183.03297 485.75553,211.31906 482.92839,214.43082 C 477.37905,220.53884 451.64285,224.44364 438.88401,232.46948 z M 326.19378,163.39331 C 325.78051,183.99287 346.42281,193.45767 363.39853,187.68838 C 382.8726,181.07002 385.3735,146.15159 364.38958,140.03997 C 347.17974,135.02757 326.62728,141.78589 326.19378,163.39331 z M 451.78765,188.86001 C 474.16713,186.0589 480.89941,150.67168 461.50933,141.24885 C 445.8987,133.66269 421.81236,139.70462 419.61445,160.90421 C 416.96866,186.42371 435.41368,190.90945 451.78765,188.86001 z "
     style="fill:#ffffff"
     id="skull" />
</svg>
