<?xml version="1.0" encoding="UTF-8"?>
<!DOCTYPE svg PUBLIC "-//W3C//DTD SVG 1.1//EN" "http://www.w3.org/Graphics/SVG/1.1/DTD/svg11.dtd">
<!-- Creator: CorelDRAW -->
<svg xmlns="http://www.w3.org/2000/svg" xml:space="preserve" width="210mm" height="297mm"
    shape-rendering="geometricPrecision" text-rendering="geometricPrecision" image-rendering="optimizeQuality" fill-rule="evenodd" clip-rule="evenodd"
    viewBox="0 0 210 297">
 <g id="Layer_x0020_1">
  <metadata id="CorelCorpID_0Corel-Layer"/>
  <rect fill="#A7D76E" x="28.2312" y="34.0889" width="140" height="200"/>
  <line fill="none" stroke="#DA251D" stroke-width="3" x1="71.8332" y1="109.715" x2="65.9277" y2= "54.5325" />
  <ellipse fill="none" stroke="#1F1A17" stroke-width="2" cx="65.9277" cy="49.7425" rx="4.79003" ry="4.79001"/>
  <circle fill="#0093DD" cx="65.9276" cy="44.9524" r="2.41999"/>
  <polyline fill="none" stroke="#1F1A17" stroke-width="5" points="120.415,167.338 145.761,124.711 165.346,165.034 "/>
  <polyline fill="none" stroke="#1F1A17" stroke-width="5" points="145.761,124.711 143.456,77.4758 104.286,90.1486 "/>
  <ellipse fill="none" stroke="#1F1A17" stroke-width="5" cx="143.456" cy="59.0426" rx="16.7049" ry="16.705"/>
  <circle fill="black" stroke="#1F1A17" stroke-width="0.2" cx="65.9277" cy="44.9525" r="1.83662"/>
  <circle fill="#999999" cx="65.9277" cy="44.9525" r="0.731225"/>
  <polyline fill="none" stroke="#1F1A17" stroke-width="5" points="52.7671,200.633 75.5442,192.097 95.1295,232.42 "/>
  <polyline fill="none" stroke="#1F1A17" stroke-width="5" points="75.5442,192.097 73.2401,144.862 34.0695,157.535 "/>
  <line fill="none" stroke="#1F1A17" stroke-width="5" x1="73.24" y1="144.862" x2="95.8937" y2= "150.345" />
  <line fill="none" stroke="#1F1A17" stroke-width="5" x1="102.878" y1="128.617" x2="93.0752" y2= "151.613" />
  <line fill="none" stroke="#1F1A17" stroke-width="5" x1="54.2966" y1="199.265" x2="44.4938" y2= "222.26" />
  <path fill="none" stroke="#DA251D" stroke-width="3" d="M65.9277 49.7425l72.5814 61.6046c-2.5533,3.9609 -1.6652,14.7682 -6.5811,12.6729 -19.4159,-8.2755 -3.766,18.2144 -13.464,21.216 -3.9836,1.233 -3.4834,20.1654 -1.632,23.256 2.8336,4.7304 9.5913,7.1657 14.28,9.384 6.0856,2.8791 -2.6162,7.6689 -3.672,13.872 -0.855,5.0237 -0.9672,13.1585 4.896,14.688 0.9384,0.2447 -5.0295,-3.8173 -8.568,3.672 -14.1994,30.0533 31.5561,13.5141 24.0945,3.6259 -7.4156,-9.8273 -31.6709,0.3116 -13.0086,9.2499 20.6411,9.8862 22.4129,11.0229 24.8181,2.6282 7.1558,-24.9744 -10.7364,3.4095 8.5592,8.4769"/>
  <line fill="none" stroke="#1F1A17" stroke-width="5" x1="143.456" y1="77.4758" x2="123.957" y2= "101.662" />
  <ellipse fill="none" stroke="#1F1A17" stroke-width="5" cx="73.2401" cy="126.429" rx="16.7049" ry="16.705"/>
 </g>
</svg>
