<?xml version="1.0" encoding="UTF-8" standalone="no"?>
<svg
   xmlns:dc="http://purl.org/dc/elements/1.1/"
   xmlns:cc="http://creativecommons.org/ns#"
   xmlns:rdf="http://www.w3.org/1999/02/22-rdf-syntax-ns#"
   xmlns:svg="http://www.w3.org/2000/svg"
   xmlns="http://www.w3.org/2000/svg"
   xmlns:xlink="http://www.w3.org/1999/xlink"
   xmlns:sodipodi="http://sodipodi.sourceforge.net/DTD/sodipodi-0.dtd"
   xmlns:inkscape="http://www.inkscape.org/namespaces/inkscape"
   width="250"
   height="250"
   id="svg2"
   version="1.1"
   inkscape:version="0.48.4 r9939"
   sodipodi:docname="yin_and_yang_src.svg"
   inkscape:export-filename="C:\Users\Martin\Programming\TT_DownLoaderAND\res\drawable\ic_seilschaft.png"
   inkscape:export-xdpi="7.1999998"
   inkscape:export-ydpi="7.1999998">
  <metadata
     id="metadata33">
    <rdf:RDF>
      <cc:Work
         rdf:about="">
        <dc:format>image/svg+xml</dc:format>
        <dc:type
           rdf:resource="http://purl.org/dc/dcmitype/StillImage" />
        <dc:title></dc:title>
      </cc:Work>
    </rdf:RDF>
  </metadata>
  <sodipodi:namedview
     pagecolor="#ffffff"
     bordercolor="#666666"
     borderopacity="1"
     objecttolerance="10"
     gridtolerance="10"
     guidetolerance="10"
     inkscape:pageopacity="0"
     inkscape:pageshadow="2"
     inkscape:window-width="640"
     inkscape:window-height="480"
     id="namedview31"
     showgrid="false"
     inkscape:zoom="0.944"
     inkscape:cx="125"
     inkscape:cy="125"
     inkscape:window-x="0"
     inkscape:window-y="0"
     inkscape:window-maximized="0"
     inkscape:current-layer="svg2" />
  <defs
     id="defs4">
    <path
       id="y"
       d="m 425,25 c 110.4,0 200,89.6 200,200 0,110.4 -89.6,200 -200,200 -110.4,0 -200,89.6 -200,200 0,110.4 89.6,200 200,200 C 645.8,825 825,645.8 825,425 825,204.2 645.8,25 425,25 z m 0,537.5 c 34.5,0 62.5,28 62.5,62.5 0,34.5 -28,62.5 -62.5,62.5 -34.5,0 -62.5,-28 -62.5,-62.5 0,-34.5 28,-62.5 62.5,-62.5 z" />
    <path
       id="d"
       d="m 450,200 c 0,27.61424 -22.38576,50 -50,50 -27.61424,0 -50,-22.38576 -50,-50 0,-27.61424 22.38576,-50 50,-50 27.61424,0 50,22.38576 50,50 z" />
    <filter
       id="f">
      <feGaussianBlur
         stdDeviation="12.375"
         id="feGaussianBlur9" />
    </filter>
  </defs>
  <path
     transform="matrix(0.28267752,0,0,0.28267752,11.928991,11.928988)"
     d="M 800,400 C 800,620.9139 620.9139,800 400,800 179.0861,800 0,620.9139 0,400 0,179.0861 179.0861,0 400,0 620.9139,0 800,179.0861 800,400 z"
     style="opacity:0.5;fill:#7f7f7f;stroke:#7f7f7f;stroke-width:25;filter:url(#f)"
     id="path15"
     inkscape:connector-curvature="0" />
  <g
     style="fill:#ff0000"
     id="g19"
     transform="matrix(0.28267752,0,0,0.28267752,11.928986,11.928986)">
    <use
       height="250"
       width="250"
       y="0"
       x="0"
       id="use21"
       transform="translate(-25,-25)"
       xlink:href="#y"
       style="fill:#ff0000" />
    <use
       height="250"
       width="250"
       y="0"
       x="0"
       id="use23"
       transform="matrix(1.25,0,0,1.25,-100,-50)"
       xlink:href="#d"
       style="fill:#ff0000" />
  </g>
  <g
     style="fill:#00ff00"
     id="g25"
     transform="matrix(-0.28267752,0,0,-0.28267752,245.13794,245.13794)">
    <use
       height="250"
       width="250"
       y="0"
       x="0"
       id="use27"
       xlink:href="#y"
       style="fill:#00ff00" />
    <use
       height="250"
       width="250"
       y="0"
       x="0"
       id="use29"
       transform="matrix(1.25,0,0,-1.25,-75,475)"
       xlink:href="#d"
       style="fill:#00ff00" />
  </g>
</svg>
